<?xml version="1.0" encoding="UTF-8"?>
<svg id="a" data-name="Capa 1" xmlns="http://www.w3.org/2000/svg" viewBox="0 0 250 188.87">
  <path d="m33.37.38h57.74v4.74c-3.22.5-6.44.82-9.57,1.52-5.68,1.28-8.5,5.13-7.21,10.78,1.65,7.23,3.86,14.33,6.01,21.44,5.93,19.61,11.95,39.19,17.94,58.78.22.7.46,1.4.69,2.1.26.04.51.09.77.13,9.95-33.26,19.9-66.51,29.88-99.87h7.52c10.21,32.67,20.42,65.37,30.73,98.37.36-.52.63-.77.72-1.08,6.73-21.87,13.52-43.72,20.11-65.64,1.29-4.29,2.03-8.78,2.61-13.23.73-5.59-1.81-9.49-7.19-11.25-2.9-.95-5.96-1.4-9.01-2.09V.38h41.26v4.94c-.99.14-1.94.33-2.9.42-4.62.43-8.27,2.56-10.36,6.66-1.8,3.53-3.36,7.22-4.57,10.98-11.55,35.93-23.01,71.89-34.45,107.86-.46,1.45-1.16,1.78-2.56,1.78-5.52-.01-5.54.04-7.24-5.24-9.42-29.21-18.82-58.43-28.24-87.65-.2-.63-.43-1.24-.83-2.4-1.2,3.83-2.22,7.19-3.29,10.52-8.86,27.42-17.75,54.83-26.53,82.27-.62,1.93-1.44,2.57-3.43,2.51-4.92-.13-4.94-.03-6.49-4.78-11.95-36.52-23.88-73.04-35.87-109.55-.84-2.55-1.96-5.03-3.18-7.43-1.4-2.78-3.73-4.46-6.91-4.83-.67-.08-1.34-.22-2-.34q-4.8-.87-4.16-5.72Z" style="fill: #fff;"/>
  <path d="m150.78,169.58c-.28.89-.58,1.78-.85,2.67-1.37,4.52-2.73,9.05-4.1,13.57q-.8,2.65-4.1,2.84c-1.91-6.73-3.82-13.5-5.74-20.27-.48-1.69-.61-3.64-3.02-3.9-.23-.03-.6-.69-.54-.97.07-.28.59-.65.92-.66,3.07-.05,6.15-.03,9.31-.03.03,2.61-2.44,1.32-3.4,2.77,1.48,5.27,3.06,10.86,4.82,17.12.46-1.22.74-1.83.93-2.47,1.5-4.87,3.09-9.73,4.44-14.64.48-1.75,1.52-1.92,2.95-2.05,1.7-.15,1.48,1.16,1.73,2.08,1.33,4.85,2.63,9.7,3.94,14.55.15.57.36,1.12.72,2.21,1.87-5.97,3.57-11.42,5.34-17.07-1.25-.38-2.36-.71-3.47-1.05.28-1.58,3.72-2.05,9.33-1.19-.49.59-.79,1.32-1.22,1.4-1.66.31-2.04,1.53-2.46,2.84-1.97,6.14-4.08,12.25-5.9,18.43-.62,2.09-1.63,3.05-4,2.92-1.71-6.28-3.45-12.67-5.19-19.05-.15-.02-.31-.04-.46-.06Z" style="fill: #fff;"/>
  <path d="m190.38,186.09c1.01.21,1.91.33,2.76.61.3.1.67.62.65.92-.03.27-.54.71-.84.72-2.92.05-5.83.03-8.75.03-.1-.23-.2-.46-.3-.69.64-.39,1.23-.97,1.92-1.13,1.4-.33,1.89-.99,1.86-2.48-.1-5.56-.1-11.12,0-16.67.03-1.57-.41-2.33-1.99-2.59-.6-.1-1.11-.74-1.66-1.13.66-.29,1.3-.7,1.99-.83,3.75-.71,6.16.67,8.12,4.12,2.99,5.26,6.63,10.15,10.54,15.12,0-1.59,0-3.18,0-4.77,0-3.15-.14-6.32.05-9.46.13-2.06-.51-3.1-2.58-3.25-.36-.03-.71-.17-1.72-.42.82-.65,1.25-1.29,1.71-1.31,2.77-.1,5.54-.05,8.46-.05-.08,2.57-2.42,1.4-3.5,2.7v22.5c-2.2,1.32-3.42.73-4.68-1.25-3.37-5.33-6.98-10.51-10.51-15.75-.4-.59-.85-1.16-1.54-2.11v17.17Z" style="fill: #fff;"/>
  <path d="m62.05,187.6c.63-.37,1.22-.91,1.91-1.07,1.4-.32,1.92-.99,1.89-2.48-.09-5.4-.09-10.81,0-16.22.02-1.56-.35-2.39-2.04-2.49-.51-.03-.98-.61-1.47-.94.43-.32.86-.89,1.31-.91,4.19-.19,8.39-.5,12.57-.31,2.84.13,5.31,1.5,5.81,4.72.5,3.21-1.18,5.44-3.72,7.14-.56.37-1.17.66-2.09,1.17,3.33,3.84,5.08,8.93,10.93,11.27-1.1.59-1.74,1.15-2.43,1.25-2.55.36-4.64-.71-6.08-2.71-1.58-2.18-3.05-4.48-4.23-6.89-.9-1.83-2.28-2.25-3.82-1.69-.59.21-.79,1.75-.97,2.72-.16.87.06,1.81-.05,2.69-.26,2.07.16,3.52,2.63,3.66.43.02.82.61,1.23.93-.49.31-.98.87-1.47.89-3.16.08-6.32.04-9.47.04-.14-.26-.29-.52-.43-.78Zm7.69-23.06v10.76c2.94.48,5.61.47,7.34-2.25,1.34-2.1,1.19-4.34-.14-6.37-1.71-2.61-4.35-2.54-7.2-2.15Z" style="fill: #fff;"/>
  <path d="m15.69,174.46c4.39,1.5,6,3.4,5.84,6.66-.17,3.37-2.56,6.23-6.51,6.7-4.83.57-9.74.53-14.62.76-.13-.25-.27-.5-.4-.75.54-.42,1.03-1.11,1.63-1.22,1.69-.31,2.08-1.22,2.06-2.82-.09-5.33-.07-10.66-.01-15.99.02-1.47-.17-2.48-1.97-2.53-.47-.01-.93-.68-1.4-1.04.45-.3.89-.84,1.36-.87,3.75-.26,7.51-.64,11.25-.53,2.61.07,5.1,1.15,6.12,3.89.79,2.1.35,4.17-1.16,5.89-.58.65-1.34,1.14-2.2,1.86Zm-8.01,1.51v10.46c1.88,0,3.61.17,5.3-.04,2.94-.35,4.62-2.36,4.6-5.18-.02-2.79-1.75-4.87-4.61-5.21-1.69-.2-3.42-.04-5.28-.04Zm-.07-1.56c2.74-.42,5.61,1.07,7.4-1.93,1.1-1.85.8-4.65-.62-6.35-1.46-1.74-4.25-2.29-6.78-1.33v9.61Z" style="fill: #fff;"/>
  <path d="m107.68,162.83c-.2,2.32-.36,4.24-.53,6.17-.22.13-.43.26-.65.4-.45-.58-1.25-1.15-1.28-1.75-.11-2.71-1.53-3.31-3.97-3.07-2.07.2-4.17.04-6.37.04v9.74c3.18.41,6.26.89,8.04-3.34.18.33.37.66.55,1-.19,2.29-.35,4.58-.59,6.87-.04.33-.43.81-.74.87-.3.06-.87-.22-1.01-.51-.45-.9-.59-2.55-1.15-2.68-1.55-.37-3.25-.13-5.06-.13v10.1c3.13,0,6.2.05,9.26-.06.48-.02,1.06-.71,1.36-1.22.49-.83.71-1.82,1.2-2.66.19-.33.78-.59,1.19-.6.21,0,.65.62.63.93-.11,1.78-.33,3.55-.52,5.35h-20.68c-.1-.17-.19-.34-.29-.51.56-.4,1.08-1.04,1.68-1.14,1.83-.3,2.11-1.34,2.08-3-.1-5.25-.14-10.51.01-15.76.06-1.99-.38-3.11-2.5-3.3-.41-.04-.77-.64-1.15-.99.39-.25.78-.71,1.18-.71,6.31-.05,12.62-.03,19.28-.03Z" style="fill: #fff;"/>
  <path d="m219.32,164.61v9.9c1.66,0,3.41.36,4.88-.11,1.2-.39,2.08-1.77,3.11-2.71.2.1.4.2.59.31-.19,2.35-.36,4.71-.62,7.06-.03.28-.55.63-.89.72-.23.06-.8-.29-.81-.48-.33-4.58-3.71-2.53-6.21-2.98v10.22c3.08,0,6.15.05,9.21-.05.48-.02,1.08-.68,1.38-1.19.52-.9.8-1.94,1.3-2.86.15-.28.74-.53,1.04-.45.3.08.7.6.69.91-.11,1.78-.33,3.56-.52,5.41h-20.67c-.11-.19-.21-.38-.32-.57.62-.4,1.2-1.02,1.88-1.15,1.59-.31,1.93-1.16,1.9-2.67-.09-5.4-.13-10.81.01-16.21.05-1.93-.48-2.92-2.46-3.11-.42-.04-.8-.62-1.19-.96.38-.26.76-.75,1.14-.75,6.31-.05,12.62-.03,19.31-.03-.19,2.25-.37,4.28-.54,6.31-.28.1-.57.19-.85.29-.4-.73-1.09-1.43-1.15-2.19-.18-2.22-1.24-2.86-3.37-2.67-2.22.19-4.48.04-6.85.04Z" style="fill: #fff;"/>
  <path d="m36.86,187.64c1.17-.66,2.33-1.33,3.8-2.17-.6-1.64-1.19-3.46-1.95-5.22-.17-.4-.89-.7-1.4-.79-.81-.13-1.65-.04-2.48-.04-5.65,0-6.1.41-6.87,6.46.84.23,1.72.4,2.53.74.37.15.6.65.89.99-.38.25-.75.71-1.14.72-2.76.06-5.53.03-9.07.03.94-.94,1.32-1.65,1.85-1.78,1.71-.42,2.32-1.64,2.87-3.11,2.28-6.04,4.71-12.01,6.91-18.08.71-1.97,1.68-3.07,4.08-2.8,1.28,3.69,2.6,7.5,3.92,11.32,1.08,3.12,2.19,6.23,3.19,9.37.49,1.56.95,2.98,2.86,3.3.3.05.79.72.72.85-.2.38-.64.87-.99.88-3.14.07-6.28.04-9.41.04l-.31-.73Zm-2.42-20.63c-1.41,3.77-2.61,6.99-3.85,10.34h7.29c-1.13-3.4-2.19-6.58-3.44-10.34Z" style="fill: #fff;"/>
  <path d="m123.35,169.78c-1.89.51-1.96-.59-2.21-1.67-.24-1.05-.46-2.27-1.13-3.01-1.32-1.46-3.71-1.45-5.15-.27-1.39,1.14-1.84,3.67-.65,5.34.8,1.13,1.95,2.08,3.1,2.87,1.73,1.18,3.7,2.04,5.41,3.25,3.49,2.46,3.81,6.6.87,9.71-3.04,3.22-9.35,3.87-12.94,1.27-.47-.34-.89-1.04-.94-1.6-.13-1.56-.04-3.13-.04-4.59,2.04-.75,2.3.39,2.58,1.66.76,3.35,3.05,4.76,6.25,3.91,1.74-.46,3.23-1.52,3.22-3.31,0-1.31-.67-3.02-1.64-3.84-1.87-1.58-4.2-2.61-6.29-3.94-2.21-1.4-3.71-3.25-3.67-6.06.05-3.05,1.51-5.13,4.24-6.34,3.05-1.35,6.04-1.1,8.79.79.37.26.56,1.02.55,1.55-.04,1.41-.23,2.82-.36,4.28Z" style="fill: #fff;"/>
  <path d="m247.79,169.72c-1.76.6-1.96-.37-2.22-1.5-.26-1.11-.51-2.41-1.23-3.19-1.34-1.45-3.75-1.35-5.15-.14-1.35,1.17-1.73,3.74-.52,5.37.83,1.11,1.99,2.03,3.15,2.82,1.68,1.14,3.57,1.96,5.23,3.12,3.73,2.6,3.93,7.09.56,10.17-3.12,2.86-8.97,3.35-12.43.93-.55-.39-.95-1.29-1.03-1.99-.16-1.4-.05-2.84-.05-4.13,2.19-1.06,2.3.43,2.59,1.65.76,3.26,3.23,4.88,6.31,3.69,1.29-.5,2.74-1.88,3.07-3.13.29-1.11-.51-3.03-1.47-3.84-1.93-1.63-4.31-2.72-6.47-4.08-2.58-1.62-3.94-3.87-3.51-7,.4-2.94,2.23-4.71,4.89-5.63,2.88-1,5.66-.65,8.16,1.16.33.24.49.91.47,1.37-.05,1.42-.22,2.84-.35,4.34Z" style="fill: #fff;"/>
  <path d="m49.71,187.59c.71-.39,1.37-.95,2.13-1.15,1.14-.3,1.57-.83,1.56-2.02-.05-5.85-.05-11.7,0-17.55.01-1.29-.38-1.95-1.71-2.07-.65-.06-1.28-.36-2.4-.7.7-.58,1.12-1.22,1.55-1.23,3.29-.08,6.58-.05,9.9-.05q-.18,1.44-3.31,2.39v20.59c.78,1.2,3.49-.19,3.47,2.48h-10.75c-.14-.23-.29-.46-.43-.7Z" style="fill: #fff;"/>
  <path d="m179.11,185.51c1,1.52,3.6.12,3.53,2.76h-10.73l-.36-.46c.5-.41.95-1.09,1.5-1.17,1.91-.3,2.29-1.36,2.25-3.14-.11-5.26-.1-10.52,0-15.77.03-1.73-.23-2.89-2.24-3.08-.49-.05-.93-.68-1.39-1.04.53-.26,1.06-.73,1.6-.75,3.06-.07,6.13-.04,9.2-.04.11.27.21.54.32.81-.66.37-1.35.71-1.98,1.14-.6.41-1.62.9-1.63,1.36-.11,6.6-.07,13.2-.07,19.38Z" style="fill: #fff;"/>
</svg>
