<?xml version="1.0" encoding="UTF-8"?>
<svg id="a" data-name="Capa 1" xmlns="http://www.w3.org/2000/svg" viewBox="0 0 167 49.95">
  <path d="m112.59,1.03c3.57,0,7.1-.07,10.62.03,1.74.05,3.29.84,4.6,2.03,2.12,1.93,2.36,4.33,1.69,6.94-.09.35-.06.57.2.84,5.08,5.25,3.49,13.59-3.16,16.73-1.47.69-3.01,1.06-4.64,1.05-2.86-.02-5.73,0-8.59,0-.23,0-.46,0-.72,0V1.03Zm5.63,5.4v16.72c1.4,0,2.76.08,4.12-.02,2.13-.15,3.94-1.64,4.49-3.65.58-2.11-.03-3.91-1.76-5.23-1.11-.85-2.33-1.55-3.54-2.34.13-.14.32-.33.49-.54.59-.7,1.24-1.37,1.73-2.13.75-1.16.04-2.68-1.33-2.78-1.38-.1-2.77-.02-4.2-.02Z" style="fill: #fff;"/>
  <path d="m110.66,28.58h-5.61v-4.86h-8.14v4.86h-5.59V.98c4.78-.39,9.32.12,13.22,3.16,3.94,3.07,6.11,7.05,6.12,12.12,0,3.83,0,7.65,0,11.48,0,.27,0,.55,0,.85Zm-5.65-10.39c.54-5.76-3.53-11.55-8.08-11.5v11.53c2.57,0,5.09,0,7.6,0,.15,0,.29-.02.47-.03Z" style="fill: #fff;"/>
  <path d="m77.82,22.26c-5.58,0-10.26-3.86-11.3-9.29-.86-4.55,1.56-9.28,5.95-11.63,6.78-3.62,15.29.43,16.74,7.98.9,4.69-1.76,9.7-6.26,11.81-1.63.76-3.34,1.17-5.14,1.13Zm-5.75-11.08c0,3.26,2.41,5.6,5.78,5.61,3.44,0,5.86-2.3,5.86-5.58,0-3.33-2.35-5.58-5.83-5.58-3.39,0-5.81,2.31-5.82,5.56Z" style="fill: #fff;"/>
  <path d="m48.63,10.93c.16,6.25-5.47,11.88-12.47,11.3-5.32-.44-9.44-4.12-10.43-9.22-.82-4.25,1.2-8.65,5.14-11.2,6.52-4.22,15.54-.67,17.4,6.85.18.74.24,1.51.36,2.27Zm-17.36.24c-.01,3.26,2.4,5.61,5.77,5.61,3.41,0,5.86-2.28,5.87-5.51.02-3.33-2.31-5.64-5.69-5.65-3.51-.01-5.94,2.25-5.95,5.55Z" style="fill: #fff;"/>
  <path d="m23.38,2.56c-1.06,1.57-2.07,3.05-3.07,4.52-5.45-3.13-10.64-.65-12.85,2.38-2.52,3.46-2.34,7.95.5,11.22,2.84,3.27,8.12,4.43,12.52,1.57,1.06,1.45,2.13,2.91,3.23,4.42-.17.12-.31.24-.47.33C14.95,32.2,3.25,28.34.48,18.33-1.14,12.47,1.44,5.98,6.81,2.62c5.15-3.22,10.45-3.32,15.82-.51.19.1.37.22.55.33.05.03.11.07.2.12Z" style="fill: #fff;"/>
  <path d="m65.51,23.92v5.47c-5.06-.22-9.25-2.15-12.22-6.23-3.56-4.87-3.94-10.13-.93-15.39C55.22,2.78,59.74.39,65.5.1v5.48c-3.05.09-5.55,1.29-7.43,3.67-1.36,1.72-2,3.68-1.94,5.89.12,4.09,3.68,8.58,9.39,8.77Z" style="fill: #fff;"/>
  <path d="m145.81,28.58v-.82c0-6.88,0-13.77.01-20.65,0-.63-.14-.86-.81-.82-.95.06-1.92.02-2.92.02V.88h13.13v5.43h-3.76v22.27h-5.65Z" style="fill: #fff;"/>
  <path d="m140.23.94v27.64h-5.57V.94h5.57Z" style="fill: #fff;"/>
  <path d="m26.24,23.24h21.69v5.32h-21.69v-5.32Z" style="fill: #fff;"/>
  <path d="m88.73,23.24v5.32h-21.69v-5.32h21.69Z" style="fill: #fff;"/>
  <path d="m46.66,43.75c.01-2.23.74-4.11,2.66-5.36,1.2-.78,2.58-.91,3.95-.77,1.41.14,2.65.69,3.65,1.78.73.79,1.11,1.73,1.31,2.73.29,1.45.22,2.89-.28,4.29-.66,1.83-2.01,2.92-3.85,3.34-1.59.37-3.18.22-4.65-.6-1.49-.83-2.31-2.13-2.62-3.78-.1-.54-.12-1.09-.18-1.63Zm9.3-.21c-.03-.28-.05-.79-.16-1.28-.33-1.4-1.24-2.4-2.78-2.6-1.41-.18-2.78.43-3.41,1.75-.6,1.27-.6,2.58-.31,3.89.26,1.17,1,2.06,2.17,2.41,1.26.37,2.46.19,3.43-.8.86-.87,1.03-1.98,1.06-3.36Z" style="fill: #fff;"/>
  <path d="m83.81,43.62c-.08,1.78-.37,3.28-1.51,4.53-.96,1.06-2.16,1.58-3.5,1.73-1.26.15-2.51,0-3.69-.59-1.59-.79-2.5-2.09-2.84-3.75-.3-1.43-.29-2.89.23-4.3.64-1.75,1.79-2.95,3.64-3.41,1.88-.47,3.67-.32,5.3.79,1.27.86,1.95,2.11,2.21,3.6.09.52.12,1.04.16,1.4Zm-2.42.14c-.06-.46-.1-.92-.18-1.37-.22-1.31-1.09-2.48-2.73-2.72-1.36-.2-2.81.34-3.47,1.74-.61,1.29-.6,2.62-.29,3.95.27,1.15,1.01,2.01,2.15,2.35,1.28.38,2.5.18,3.48-.85.83-.87.99-1.96,1.04-3.1Z" style="fill: #fff;"/>
  <path d="m127.9,45.97c.68-.1,1.33-.23,1.99-.27.14,0,.38.26.45.45.67,1.78,3.24,2.37,4.59,1.04.68-.68.6-1.51-.28-1.89-.8-.35-1.67-.5-2.49-.79-.78-.28-1.58-.55-2.3-.96-1.17-.67-1.58-1.81-1.4-3.08.19-1.3,1.02-2.23,2.26-2.59,1.63-.47,3.27-.5,4.84.34,1.16.62,1.57,1.66,1.75,2.91-.67.06-1.3.15-1.92.16-.17,0-.44-.16-.51-.31-.51-1.13-1.46-1.61-2.69-1.3-.1.03-.2.06-.3.09-.51.14-.96.38-1.02.97-.06.63.42.91.9,1.07,1.15.38,2.31.7,3.47,1.04,2.97.87,3.36,4.43,1.23,6.07-.7.54-1.7.82-2.6.95-1.25.19-2.53.06-3.71-.49-1.17-.55-1.82-1.51-2.12-2.74-.05-.2-.09-.4-.15-.67Z" style="fill: #fff;"/>
  <path d="m119.87,39.88v2.57h5.82v2.04h-5.8v3.09h6.58v2.02h-9.03v-11.71h8.78v1.99h-6.35Z" style="fill: #fff;"/>
  <path d="m44.6,49.64h-2.36v-5.07h-4.78v5.06h-2.4v-11.73h2.36v4.54h4.78v-4.54h2.4v11.76Z" style="fill: #fff;"/>
  <path d="m97.43,49.64h-2.6c.53-1.42,1.04-2.81,1.57-4.19.88-2.3,1.77-4.6,2.64-6.9.18-.49.4-.81.98-.7.19.03.38,0,.58,0,1.46,0,1.49-.01,1.99,1.31,1.24,3.3,2.45,6.61,3.67,9.92.06.18.12.36.19.57-.57,0-1.11-.07-1.63.02-.75.12-1.06-.25-1.26-.87-.15-.48-.38-.93-.49-1.42-.08-.36-.26-.43-.58-.43-1.22.01-2.44,0-3.65,0-.31,0-.48.06-.58.42-.22.76-.53,1.49-.82,2.26Zm3.22-8.95c-.51,1.43-1,2.79-1.5,4.19h3.02c-.51-1.41-1.01-2.77-1.53-4.19Z" style="fill: #fff;"/>
  <path d="m70.47,41.13c-.91.17-1.64.3-2.41.44-.38-.83-.83-1.54-1.82-1.82-1.68-.47-3.46.56-3.76,2.28-.2,1.16-.18,2.29.11,3.44.33,1.3,1.33,2.01,2.43,2.11,1.48.13,2.4-.52,2.86-1.83.08-.23.19-.46.3-.73.38.13.75.26,1.12.38.37.13.74.25,1.1.37-.71,2.93-3.18,4.23-5.96,3.77-1.68-.28-2.96-1.09-3.75-2.56-.38-.7-.65-1.51-.73-2.3-.22-2.07.05-4.07,1.62-5.62,1.89-1.87,5.35-2.11,7.46-.19.6.55.92,1.42,1.42,2.24Z" style="fill: #fff;"/>
  <path d="m32.95,41.12c-.98.18-1.69.31-2.34.43-.41-.5-.73-1.07-1.21-1.41-1.58-1.12-4.11-.34-4.51,2-.19,1.14-.17,2.26.13,3.38.28,1.08,1.32,2.03,2.39,2.09,1.54.08,2.36-.51,2.88-1.74.09-.21.16-.43.25-.64.02-.06.06-.11.09-.17.74.25,1.46.49,2.18.73-.36,1.86-1.69,3.34-3.52,3.73-1.69.36-3.31.17-4.75-.87-1.19-.86-1.82-2.05-2.08-3.47-.24-1.35-.18-2.68.26-3.99.76-2.26,2.59-3.46,4.89-3.58,1.38-.07,2.68.21,3.68,1.18.64.62,1.05,1.46,1.67,2.35Z" style="fill: #fff;"/>
  <path d="m109.72,39.89h-3.58v-1.99h9.54v1.99h-3.52v9.71h-2.44v-9.71Z" style="fill: #fff;"/>
  <path d="m154.69,28.47c.01-3.46,2.73-6.14,6.23-6.13,3.36.01,6.08,2.77,6.08,6.16,0,3.4-2.76,6.15-6.17,6.14-3.42,0-6.15-2.75-6.14-6.17Zm6.12,4.93c2.7.01,4.94-2.17,4.95-4.83,0-2.81-2.12-4.99-4.89-5-2.73-.01-4.94,2.16-4.97,4.88-.02,2.7,2.2,4.94,4.91,4.95Z" style="fill: #fff;"/>
  <path d="m88.12,47.62h6.15v1.99h-8.53v-11.72h2.38v9.73Z" style="fill: #fff;"/>
  <path d="m159.57,29.16v2.58h-1.31v-6.42c1.29,0,2.57-.05,3.84.02.72.04,1.26.7,1.36,1.42.11.83-.21,1.51-.9,1.89-.19.1-.39.17-.49.22.6.92,1.21,1.85,1.9,2.92-.59,0-1.01.03-1.42-.02-.17-.02-.37-.18-.46-.34-.31-.51-.56-1.06-.88-1.56-.35-.57-.86-.87-1.63-.71Zm.03-1.17c.6,0,1.17.04,1.73-.01.45-.04.73-.34.73-.82,0-.51-.31-.8-.78-.84-.54-.05-1.09-.01-1.68-.01v1.68Z" style="fill: #fff;"/>
</svg>
