<?xml version="1.0" encoding="UTF-8"?>
<svg id="a" data-name="Capa 1" xmlns="http://www.w3.org/2000/svg" viewBox="0 0 166.55 115.96">
  <path d="m37.09,115.33c-1.08.32-1.66.35-1.85-.98-.37-2.65-.95-5.26-1.55-8.43-1.87,3.47-3.51,6.5-5.43,10.05-1.89-3.48-3.56-6.56-5.23-9.64-.14,0-.29.01-.43.02-.2,1.36-.41,2.71-.59,4.08-.17,1.31-.35,2.63-.41,3.95-.05,1.2-.6,1.32-1.53.99.5-3.04.96-6.02,1.49-8.99.2-1.14.56-2.25.85-3.38.74.93,1.62,1.79,2.21,2.81,1.35,2.33,2.57,4.73,4.03,7.48.88-1.61,1.59-2.89,2.28-4.18.95-1.78,1.86-3.58,2.85-5.33.19-.34.64-.63,1.02-.73.15-.04.62.49.66.8.57,3.8,1.09,7.61,1.64,11.49Z" style="fill: #fff;"/>
  <path d="m76.01,115.52v-12.81c2.52.21,5.11.11,7.54.7,2.38.58,3.27,2.72,3.34,5.09.08,2.7-.62,5.02-3.24,6.34-2.44,1.23-5,.88-7.64.68Zm1.94-6.28s.03,0,.05,0c0,1.5-.1,3.01.06,4.49.05.45.76,1.16,1.21,1.19,1.96.15,3.91-.14,4.98-2.04,1.34-2.37,1.31-4.89,0-7.27-1.06-1.93-2.96-2.16-4.96-2.07-.94.04-1.36.44-1.35,1.37.02,1.44,0,2.88,0,4.32Z" style="fill: #fff;"/>
  <path d="m159.82,115.84c-3.93-.01-6.7-2.74-6.68-6.59.02-3.76,2.71-6.65,6.35-6.51,4.35.17,7.03,2.43,7.06,6.59.03,3.84-2.77,6.52-6.73,6.51Zm4.93-6.1c-.07-1.95-.51-3.67-2.11-5.06-2.69-2.33-6.69-1.22-7.45,2.27-.26,1.2-.22,2.54-.02,3.76.49,2.96,2.64,4.71,5.26,4.34,2.31-.32,4.44-2.01,4.32-5.31Z" style="fill: #fff;"/>
  <path d="m.03,95.9c-.1-1.39.77-1.51,1.88-1.5,9.21.03,18.41.02,27.62.02,1.2,0,2.4,0,3.69,0,.22,1.36-.66,1.49-1.82,1.49-9.03-.02-18.07,0-27.1,0-1.37,0-2.74,0-4.27,0Z" style="fill: #fff;"/>
  <path d="m165.85,94.42c0,1.42-.82,1.49-1.85,1.49-9.44-.03-18.87-.02-28.31-.02-1.13,0-2.26,0-3.44,0-.09-1.29.67-1.49,1.82-1.49,9.32.04,18.64.02,27.96.02,1.26,0,2.51,0,3.82,0Z" style="fill: #fff;"/>
  <path d="m128.03,102.85c3.29,3.37,6.27,6.43,9.26,9.5l.61-.31c0-2.38,0-4.76,0-7.14,0-.4-.12-.82-.04-1.2.05-.26.36-.46.56-.69.19.23.55.46.55.7.03,3.9.02,7.81.02,12.17-3.37-3.32-6.41-6.3-9.72-9.56-.05,1.15-.13,2.01-.13,2.87,0,1.79.07,3.57.05,5.36,0,.31-.32.62-.5.93-.22-.25-.64-.51-.64-.76-.04-3.84-.03-7.68-.03-11.85Z" style="fill: #fff;"/>
  <path d="m62.34,102.43c.61.54,1.12.8,1.31,1.21,1.76,3.86,3.47,7.74,5.2,11.64-1.25.51-1.87.23-2.27-1.01-.32-.99-.85-2.51-1.56-2.67-1.68-.4-3.6-.43-5.26,0-.74.19-1.08,1.86-1.66,2.83-.27.45-.66.82-.99,1.23-.19-.13-.38-.27-.56-.4,1.89-4.2,3.79-8.39,5.79-12.83Zm-.2,2.6c-.89,2.11-1.57,3.71-2.29,5.41h5.25c-1.01-1.85-1.84-3.38-2.95-5.41Z" style="fill: #fff;"/>
  <path d="m126.47,115.29c-1.29.53-1.89.19-2.29-1.04-.32-.99-.87-2.5-1.57-2.66-1.69-.38-3.6-.4-5.26.04-.74.2-1.07,1.88-1.64,2.85-.26.43-.67.78-1.01,1.16-.18-.13-.35-.27-.53-.4,1.8-3.97,3.54-7.97,5.42-11.9.59-1.23,1.29-.57,1.69.29,1.01,2.2,1.97,4.42,2.96,6.63.74,1.67,1.49,3.34,2.24,5.02Zm-3.7-4.76c-1.06-1.98-1.89-3.54-2.98-5.58-.92,2.16-1.6,3.76-2.37,5.58h5.34Z" style="fill: #fff;"/>
  <path d="m141.45,103.86c.63-1.04,7.14-1.43,10.39-.62-2.9,3.76-5.72,7.42-8.81,11.43h8.86c-.35.4-.57.87-.79.88-3.36.05-6.71.03-10.6.03,3.03-4.14,5.74-7.82,8.59-11.72h-7.64Z" style="fill: #fff;"/>
  <path d="m6.84,115.17c1.89-4.17,3.78-8.34,5.67-12.51.2-.02.4-.04.59-.05,1.88,4.19,3.77,8.38,5.69,12.66-1.26.53-1.88.3-2.27-.97-.31-1-.83-2.51-1.55-2.7-1.55-.42-3.38-.45-4.92-.01-.76.22-1.09,1.86-1.66,2.83-.27.45-.68.83-1.02,1.24-.18-.16-.36-.32-.53-.48Zm5.85-9.66c-.16,0-.31,0-.47,0-.69,1.62-1.37,3.24-2.1,4.96h4.78c-.82-1.84-1.51-3.4-2.21-4.97Z" style="fill: #fff;"/>
  <path d="m95.62,103.64c-1.05,0-2.09.05-3.14-.01-1.13-.07-1.64.25-1.65,1.52-.02,3.31-.08,3.3,3.32,3.34.26,0,.52.08.78.13.02.2.05.4.07.59-.58.05-1.17.2-1.75.15-2.4-.21-2.4-.23-2.4,2.12,0,1.02,0,2.05,0,3.37,1.69-.12,3.21-.22,4.72-.33.12.09.23.19.35.28-.32.26-.63.74-.96.75-1.55.07-3.11.08-4.64-.06-.39-.04-1.03-.69-1.04-1.07-.09-3.45-.07-6.9-.04-10.35,0-.37.32-1.05.51-1.06,1.96-.08,3.91-.05,5.87-.05,0,.22,0,.44-.01.66Z" style="fill: #fff;"/>
  <path d="m1.66,109.23c0,1.53,0,3.18,0,4.83,0,.66.26,1.59-.86,1.4-.33-.06-.75-.86-.76-1.33-.06-3.63-.03-7.26-.03-11.09h6.53c.01.2.02.4.04.59-.75,0-1.51-.06-2.25.02-.87.09-2.35.09-2.47.48-.34,1.1-.18,2.37-.09,3.57.02.2.71.44,1.11.48.85.07,1.7.02,2.6.25-.93,1.3-2.39.01-3.8.8Z" style="fill: #fff;"/>
  <path d="m113.42,114.47c-.5,1.24-2.66,1.47-6.22.85,0-2.07,0-4.17,0-6.27,0-1.61-.09-3.22,0-4.82.02-.44.53-.86.82-1.29.27.45.78.9.79,1.35.05,2.93.05,5.86-.06,8.79-.06,1.53.56,1.94,1.94,1.71.87-.15,1.76-.2,2.74-.3Z" style="fill: #fff;"/>
  <path d="m51.16,114.46c-.83,1.27-2.57,1.44-6.68.94v-12.26c1.14-.51,1.65-.23,1.6,1.22-.09,2.82.05,5.65-.11,8.46-.1,1.79.59,2.24,2.2,1.94.88-.16,1.79-.19,2.99-.31Z" style="fill: #fff;"/>
  <path d="m98.59,103.08c1.15-.35,1.67-.16,1.61,1.14-.12,2.87-.12,5.74-.13,8.62-.01,2.06.07,2.11,2.17,1.89.78-.08,1.55-.17,2.4-.27-.35,1.22-2.46,1.48-6.05.86v-12.25Z" style="fill: #fff;"/>
  <path d="m61.23,98.68c-2.46.04-4.35-1.77-4.35-4.15,0-2.32,1.7-4.14,3.92-4.22,2.74-.09,4.73,1.61,4.79,4.09.07,2.51-1.69,4.24-4.36,4.28Zm3.17-3.98c0-2.33-1.37-3.86-3.45-3.88-1.83-.01-2.91,1.29-2.88,3.51.03,2.41,1.27,3.91,3.22,3.87,2.04-.04,3.11-1.25,3.11-3.5Z" style="fill: #fff;"/>
  <path d="m48.77,93.92c.45,1,1.22,1.94,1.21,2.86,0,1.43-1.35,1.66-2.54,1.73-.84.05-1.69,0-2.62,0v-7.92c1.66-.13,3.4-.59,4.39,1.06.32.53-.29,1.62-.44,2.26Zm-3.21.93c.22,1.08.45,2.18.67,3.28.69-.18,1.51-.19,2.01-.6.4-.32.72-1.27.53-1.7-.53-1.17-1.59-1.54-3.22-.98Zm-.34-2.37c.59.68.98,1.14,1.38,1.6.48-.59,1.26-1.15,1.33-1.78.05-.45-.87-1-1.36-1.5-.38.48-.77.96-1.35,1.69Z" style="fill: #fff;"/>
  <path d="m72.92,90.41c1.66.09,3.22-.01,4.68.29,1.69.35,2.28,1.77,2.34,3.4.08,1.98-.77,3.48-2.29,4.03-.32.12-.66.19-.99.27-3.29.71-3.74.35-3.74-2.91,0-1.59,0-3.18,0-5.08Zm6.17,4.38c-.3-1.03-.41-1.79-.72-2.44-.51-1.05-2.8-2.03-3.72-1.39-.54.37-.62,1.51-.75,2.34-.12.73-.09,1.5,0,2.24.1.86.3,2.41.53,2.43,1.09.06,2.4-.01,3.24-.6.76-.53,1.02-1.78,1.43-2.57Z" style="fill: #fff;"/>
  <path d="m54.79,102.94v12.47c-.52.03-1,.06-1.59.1v-12.47c.47-.03.98-.06,1.59-.1Z" style="fill: #fff;"/>
  <path d="m41.33,103.24v12.17h-1.71c0-3.92-.04-7.77.06-11.61,0-.37.86-.72,1.32-1.08.11.18.22.35.33.53Z" style="fill: #fff;"/>
  <path d="m105.04,91.14c-.48-.1-.96-.23-1.45-.29-2.17-.26-3.62.89-3.79,2.99-.19,2.38,1.13,4.17,3.2,4.32,1.22.09,2.2-.09,2.09-1.72-.02-.28.44-.6.68-.9.21.33.63.69.59.99-.06.5-.29,1.13-.67,1.43-1.48,1.18-4.51.86-5.91-.53-1.37-1.36-1.52-3.8-.34-5.4,1.25-1.7,3.61-2.18,5.59-.9Z" style="fill: #fff;"/>
  <path d="m120.46,98.69c-.42-.36-1.05-.65-1.21-1.1-.46-1.31-1.16-1.88-2.64-1.88-1.42,0-2.11.57-2.49,1.82-.1.34-.36.63-.54.95-.16-.08-.32-.15-.48-.23,1.16-2.6,2.31-5.2,3.47-7.8.17,0,.34,0,.51,0,1.19,2.62,2.39,5.23,3.58,7.85-.07.13-.15.26-.22.4Zm-3.61-6.39l-.52.05c-.37.94-.73,1.88-1.21,3.11,1.16-.07,1.95-.12,3.04-.18-.52-1.18-.92-2.08-1.32-2.98Z" style="fill: #fff;"/>
  <path d="m88.21,93.92c.94.09,1.57.15,2.21.21,0,.1.02.21.02.31-.63.07-1.26.15-2.1.25,0,.99-.35,2.22.11,2.9.36.53,1.73.37,2.65.75h-3.72v-7.75h3.49s.01.07.02.11c-.83.17-1.95.08-2.4.59-.44.5-.21,1.6-.28,2.61Z" style="fill: #fff;"/>
  <path d="m114.43,39.32c0,5.25.1,10.5-.03,15.74-.16,6.47-2.58,12.11-7.33,16.46-4.46,4.08-9.72,6.86-15.96,6.92-5.06.05-10.14.09-15.16-.37-4.32-.4-7.99-2.64-11.42-5.32-6.43-5.03-8.93-11.73-8.91-19.66.02-9.69-.03-19.37.03-29.06.04-6.34,2.21-11.97,6.72-16.37C66.96,3.17,72.5.25,79.11.07c4.14-.11,8.29-.1,12.43.06,4.98.2,9.33,2.19,13.32,5.15,6.75,5,9.62,11.8,9.6,20.02,0,4.67,0,9.34,0,14.01,0,0-.01,0-.02,0Zm-1.96.15c0-4.44-.04-8.88,0-13.32.09-7.56-2.54-13.81-8.59-18.52-3-2.34-6.25-4.38-10.04-4.68-5.14-.42-10.34-.56-15.49-.32-6.93.32-12.25,4.09-16.46,9.3-3.18,3.93-4.38,8.69-4.38,13.75.01,8.88.02,17.76,0,26.63-.02,6.97,2.14,12.95,7.53,17.64,3.86,3.35,8.14,5.71,13.28,5.98,4.3.23,8.63.2,12.94.05,6.43-.22,11.54-3.45,15.77-7.95,3.81-4.06,5.44-9.15,5.44-14.74,0-4.61,0-9.22,0-13.84Z" style="fill: #fff;"/>
  <path d="m80.01,63.57v-23.17h-10.97V15.42c3.28-.07,6.68-.87,10.08.17,4.09,1.25,5.84,6.73,1.67,10.63h6.81v-8.14c.33-.05.67-.14,1-.14,2.98-.01,5.97,0,9.03,0,.09,1.22-.39,1.61-1.61,1.47-1.48-.16-2.99-.2-4.48-.12-.44.02-1.2.6-1.23.95-.12,1.94-.06,3.89-.06,5.96h6.2c.21,1.21-.1,1.87-1.49,1.69-1.14-.15-2.29-.19-3.44-.3-.85-.08-1.3.2-1.28,1.14.07,2.71.05,5.42.19,8.12.03.51.63,1.35,1.05,1.41,9.11,1.19,10.83,9.16,9.42,15.68-1.09,5.02-4.33,8.18-9.38,8.93-3.77.56-7.64.48-11.53.69Zm3.52-12.74s.05,0,.08,0c0,3.11.02,6.22,0,9.32,0,1.02.3,1.59,1.45,1.64,8.48.38,12.86-2.6,12.62-11.95-.01-.52-.08-1.03-.15-1.55-.75-5.86-4.44-8.87-10.32-8.4-.8.06-1.59.28-2.39.34-1.05.07-1.31.64-1.29,1.6.04,2.99.01,5.99.01,8.98Zm-11.01-17.42s.07,0,.11,0c0,1.44-.04,2.88.02,4.32.02.41.2.97.51,1.18,1.72,1.17,6.72-.27,7.73-2.17,2.3-4.3-.08-8.5-4.91-8.65-.69-.02-1.38.05-2.07.05-1,0-1.45.43-1.4,1.47.06,1.27.01,2.54.01,3.8Zm0-11.78c0,1.26-.06,2.53.03,3.79.03.4.4,1.08.68,1.12,1.94.26,3.88,0,5.22-1.52,1.58-1.8,1.57-4,.78-6.18-.71-1.94-2.39-2.34-4.17-2.41-2.35-.1-2.52.1-2.53,2.45,0,.92,0,1.84,0,2.76Zm11.33,16.52c.99,0,1.76.13,2.46-.05.47-.12,1.17-.67,1.18-1.05.1-3.08.05-6.16.05-9.33h-5.63c4.12,2.98,3.98,6.47,1.94,10.43Z" style="fill: #fff;"/>
</svg>
