<?xml version="1.0" encoding="UTF-8"?>
<svg id="a" data-name="Capa 1" xmlns="http://www.w3.org/2000/svg" viewBox="0 0 249 143.75">
  <path d="m130.3,0c-.7.06-1.39.12-2.09.18,0,.02,0,.05-.01.07.3.02.59.06.89.07,4.92.12,9.64,1.14,14.11,3.19,6.86,3.13,11.51,8.32,14.1,15.36,1.13,3.06,1.78,6.23,2.09,9.48.27,2.81.42,5.63.19,8.45-.79,9.88-4.31,18.54-11.69,25.37-4.84,4.48-10.6,7.23-17.12,8.38-3.47.61-6.96.69-10.46.48-4.28-.26-8.49-.97-12.51-2.52-8.98-3.46-14.55-9.95-17.04-19.16-.87-3.23-1.25-6.54-1.39-9.88-.21-4.78.3-9.47,1.7-14.05,2.1-6.89,5.72-12.83,11.3-17.48,4.65-3.87,9.96-6.36,15.97-7.29,1.13-.18,2.3-.16,3.45-.24.27-.02.54-.03.8-.04v-.13c-.71-.08-1.42-.16-2.13-.24,3.28,0,6.56,0,9.84,0Zm-11.87,32.11l.1-.02c.05.13.12.26.16.39,1.3,4,2.6,8,3.9,12,.5,1.54.5,1.53,2.1,1.12.33-.08.49-.24.58-.56.17-.56.38-1.1.58-1.65,1.26-3.58,2.51-7.16,3.78-10.74.08-.23.21-.44.31-.66.12.2.14.36.14.52.02.89.03,1.79.06,2.68.08,2.48.17,4.95.22,7.43,0,.18-.17.44-.34.55-.52.33-1.07.63-1.62.91-.58.28-.28.73-.24,1.12.04.42.36.38.66.37,2.36-.03,4.73-.06,7.09-.1.27,0,.61.07.61-.35,0-.37.28-.82-.29-1.07-.6-.25-1.2-.53-1.77-.85-.19-.11-.39-.37-.41-.57-.1-1.2-.16-2.4-.2-3.6-.04-1.36-.02-2.72-.06-4.08-.06-1.8-.16-3.61-.24-5.41-.01-.33.11-.53.44-.67.63-.28,1.25-.59,1.85-.92.14-.08.24-.31.26-.48.02-.2-.02-.43-.12-.6-.09-.16-.29-.35-.45-.35-2.04,0-4.07.03-6.11.03-.4,0-.58.13-.72.54-1.28,3.86-2.6,7.71-3.9,11.56-.05.15-.12.29-.23.57-.12-.33-.19-.5-.25-.68-1.21-3.83-2.42-7.66-3.61-11.49-.13-.43-.34-.55-.77-.54-1.98.05-3.97.07-5.95.11-.26,0-.57-.11-.62.33-.05.42-.28.84.31,1.09.49.21.95.48,1.43.71.53.26.74.64.69,1.24-.17,2.16-.3,4.32-.44,6.48-.14,2.04-.26,4.08-.42,6.12-.02.21-.24.48-.43.6-.55.32-1.13.59-1.71.84-.63.27-.3.76-.29,1.16,0,.39.32.37.61.36,2.1-.03,4.21-.07,6.31-.1.32,0,.64,0,.7-.42.06-.41.15-.81-.36-1.05-.5-.23-.99-.5-1.44-.81-.19-.13-.38-.43-.37-.64.1-2.9.23-5.81.37-8.71.03-.58.07-1.15.11-1.72Z" style="fill: #fff;"/>
  <path d="m0,141.18c.58-.29,1.16-.58,1.74-.88.72-.37,1.43-.76,2.17-1.1.32-.15.47-.35.49-.7.12-1.84.25-3.67.37-5.51.3-4.51.61-9.03.91-13.54.07-1.06.12-2.13.21-3.19.06-.83-.25-1.44-.99-1.83-.99-.52-1.97-1.06-2.98-1.55-.3-.15-.4-.29-.37-.62.14-1.54.13-1.53,1.68-1.54,3.16-.02,6.32-.04,9.48-.07.02,0,.03,0,.05,0,.94,0,.94,0,1.22.9,2.12,6.75,4.23,13.51,6.35,20.26.08.25.2.49.31.73.06.01.13.02.19.03.18-.33.42-.64.54-.99,1.08-3.12,2.14-6.24,3.2-9.37,1.26-3.71,2.51-7.42,3.76-11.13.09-.27.22-.37.51-.37,3.64-.02,7.28-.06,10.92-.1.36,0,.54.08.55.47.02.51.27,1.11.08,1.5-.18.36-.82.49-1.26.72-.88.44-1.75.89-2.63,1.32-.29.14-.39.32-.37.64.23,6.28.44,12.55.66,18.83.05,1.48.11,2.96.15,4.44,0,.38.17.57.51.73,1.14.53,2.25,1.12,3.39,1.66.37.18.56.39.49.83-.26,1.5.24,1.27-1.41,1.29-4.06.06-8.11.1-12.17.18-.45,0-.53-.14-.64-.55-.31-1.1.04-1.72,1.09-2.15.77-.32,1.44-.89,2.18-1.27.44-.23.56-.52.55-.98-.07-1.86-.11-3.72-.16-5.57-.06-2.37-.13-4.75-.19-7.12-.05-1.7-.1-3.41-.15-5.11,0-.09.02-.18-.02-.26-.08-.17-.18-.34-.27-.51-.13.13-.32.24-.38.4-.84,2.31-1.67,4.62-2.5,6.94-1.83,5.13-3.67,10.26-5.49,15.39-.15.44-.39.67-.86.75-.7.11-1.38.3-2.07.45-.29.06-.49.06-.62-.33-1.35-4.24-2.73-8.47-4.11-12.7-1.12-3.45-2.27-6.89-3.4-10.33-.06-.19-.14-.38-.21-.57-.06-.01-.13-.03-.19-.04-.08.24-.22.49-.23.73-.15,3.01-.28,6.02-.42,9.02-.13,2.94-.26,5.88-.41,8.82-.03.49.09.78.55,1.02,1.03.56,2.03,1.17,3.02,1.8.15.1.27.37.28.57.02.34-.08.68-.1,1.02-.01.32-.18.39-.47.39-3.88.03-7.77.06-11.65.12-.53,0-.63-.19-.53-.64.04-.18.03-.36-.03-.55-.1.31-.19.63-.29.94,0-.59,0-1.17,0-1.76Z" style="fill: #fff;"/>
  <path d="m249,112.68c-.11.01-.24,0-.34.05-1.23.62-2.45,1.27-3.68,1.88-.33.16-.44.36-.44.72.02,7.73.03,15.45.04,23.18,0,.38.11.59.46.76,1.15.56,2.27,1.15,3.42,1.72.38.19.51.4.39.85-.31,1.18-.29,1.19-1.53,1.2-4.12.06-8.25.11-12.37.19-.46,0-.59-.15-.64-.56-.18-1.46-.2-1.46,1.16-2.14.89-.45,1.78-.9,2.68-1.33.29-.14.4-.32.4-.64,0-.95.04-1.89.04-2.84,0-6.78,0-13.56.02-20.34,0-.4-.13-.62-.5-.79-1.18-.56-2.34-1.18-3.52-1.74-.31-.15-.46-.33-.4-.68.08-.46.14-.92.21-1.42.16-.01.31-.03.46-.03,4.18-.03,8.35-.06,12.53-.1.12,0,.24,0,.36,0q.87.01.95.88c.01.15.05.3.09.59.09-.28.14-.42.19-.56v1.14Z" style="fill: #fff;"/>
  <path d="m162.36,128.04c-.82,0-1.61,0-2.41,0-3.42,0-6.83.01-10.25.03-.29,0-.6.02-.86.13-.46.18-.66.56-.66,1.07,0,1.7,0,3.41-.01,5.11,0,1.36,0,2.72,0,4.08,0,.39.12.63.48.81,1.18.57,2.34,1.18,3.51,1.75.34.16.44.37.37.73-.24,1.3-.23,1.3-1.58,1.32-4.14.05-8.28.1-12.42.17-.53.01-.71-.13-.77-.66-.15-1.37-.18-1.37,1.05-1.98.94-.47,1.87-.95,2.82-1.41.28-.14.41-.3.41-.63,0-7.8,0-15.59-.02-23.39,0-.18-.19-.43-.35-.52-1.15-.59-2.31-1.15-3.49-1.69-.44-.2-.6-.45-.5-.92.09-.42.13-.85.19-1.3.14-.01.2-.02.27-.02,4.45-.03,8.9-.06,13.36-.11.46,0,.66.1.73.6.2,1.38.23,1.38-1.01,2.01-.94.47-1.88.95-2.82,1.4-.29.14-.4.31-.39.64.02,2.67.06,5.33.06,8,0,.45.14.55.56.55,4.21-.05,8.42-.09,12.63-.13.71,0,1.05-.36,1.05-1.05,0-2.48,0-4.96,0-7.43,0-.37-.13-.56-.45-.7-1.17-.54-2.33-1.11-3.51-1.65-.37-.17-.49-.37-.4-.76.1-.45.16-.91.25-1.39.14-.01.27-.03.41-.03,4.35-.04,8.7-.07,13.05-.1.83,0,.83,0,.97.82q.2,1.15-.83,1.65c-1.01.49-2.01.99-3.02,1.46-.31.14-.44.33-.44.67.02,7.66.04,15.32.03,22.98,0,.65.21.99.79,1.25,1.08.49,2.12,1.07,3.2,1.58.35.17.44.4.37.74-.02.08-.04.17-.05.25q-.16,1.01-1.23,1.03c-4.26.06-8.52.12-12.79.19-.45,0-.56-.17-.6-.55-.14-1.42-.14-1.43,1.12-2.07.92-.47,1.85-.92,2.76-1.41.16-.09.35-.31.35-.47.02-3.49.01-6.99.01-10.48,0-.05-.02-.1-.05-.22Z" style="fill: #fff;"/>
  <path d="m204.8,119.43c0,.39,0,.78,0,1.18.02,5.85.05,11.7.04,17.55,0,.65.2.99.78,1.25,1.08.49,2.13,1.06,3.2,1.57.32.16.45.33.42.71-.11,1.36-.09,1.34-1.42,1.36-3.74.05-7.49.11-11.23.19-.44,0-.65-.08-.63-.55,0-.22-.06-.44-.09-.66q-.11-.82.62-1.19c1.04-.53,2.08-1.08,3.13-1.59.35-.17.51-.39.51-.79.1-7.38.21-14.76.35-22.14.02-1.12-.36-1.82-1.41-2.23-.93-.37-1.82-.83-2.7-1.29-.15-.08-.29-.34-.28-.51.02-.49.12-.99.19-1.5.14-.02.25-.05.37-.05,2.9-.04,5.8-.08,8.7-.09.23,0,.55.13.69.31,3.26,4.23,6.49,8.48,9.73,12.72,1.93,2.53,3.88,5.05,5.82,7.58.05.07.1.13.25.32.03-.32.07-.5.07-.68,0-4.99-.03-9.98.02-14.97,0-.85-.23-1.25-1-1.56-1.1-.45-2.14-1.03-3.19-1.57-.11-.06-.21-.27-.19-.4.04-.53.13-1.05.21-1.6.12-.02.22-.05.32-.05,3.92-.03,7.83-.07,11.75-.09.86,0,.86,0,1.01.83.2,1.15.2,1.14-.85,1.66-1.02.51-2.04,1.01-3.04,1.54-.15.08-.29.33-.29.5-.09,5.56-.16,11.11-.24,16.67-.05,3.56-.12,7.12-.16,10.69,0,.34-.13.5-.45.57-.7.16-1.4.35-2.11.52-.34.09-.57,0-.79-.29-5.78-7.76-11.58-15.51-17.37-23.26-.18-.25-.37-.49-.55-.74-.05.03-.11.07-.16.1Z" style="fill: #fff;"/>
  <path d="m77.56,125.09c0,5.16-1.15,9.17-3.91,12.61-2.9,3.6-6.72,5.58-11.34,5.96-3.21.26-6.38-.04-9.41-1.21-4.27-1.65-6.89-4.77-7.95-9.16-1.33-5.51-.79-10.79,2.22-15.7,1.85-3.01,4.42-5.19,7.74-6.39,2.52-.91,5.15-1.23,7.84-1.03,2.25.17,4.45.53,6.55,1.36,3.91,1.56,6.23,4.53,7.43,8.45.59,1.92.84,3.9.82,5.11Zm-26.93,1.71c.12.95.24,2.65.55,4.32.36,1.96,1.12,3.8,2.5,5.3,1.73,1.87,3.86,2.84,6.43,2.99,4.6.28,8.82-2.16,10.12-6.91.7-2.56.7-5.17.55-7.78-.09-1.49-.35-2.97-.87-4.38-.95-2.55-2.71-4.3-5.35-4.94-3.38-.82-6.77-.54-10.13.33-1.37.36-2.14,1.15-2.57,2.46-.84,2.56-1.15,5.19-1.24,8.62Z" style="fill: #fff;"/>
  <path d="m133.92,116.44c0,1.24-.01,2.48,0,3.72,0,.41-.15.57-.55.64-1.48.26-1.46.26-2.1-1.06-.58-1.21-1.22-2.39-1.82-3.59-.24-.47-.6-.72-1.12-.8-2.51-.38-5.04-.64-7.57-.34-1.26.15-2.52.37-3.76.67-1.99.48-3.16,1.85-3.8,3.73-.81,2.39-.86,4.86-.79,7.35.06,2.12.34,4.21,1.09,6.22,1.01,2.66,2.67,4.79,5.4,5.77,3.23,1.16,6.45.82,9.53-.68.93-.45,1.66-1.16,2.23-2.03.76-1.17,1.53-2.33,2.28-3.51.17-.27.33-.35.63-.25.47.16,1.13.14,1.37.46.21.28-.04.91-.09,1.38-.21,1.88-.43,3.76-.64,5.64-.04.38-.16.66-.52.88-3.57,2.12-7.43,3.18-11.58,3.1-2.6-.05-5.15-.37-7.6-1.34-3.66-1.45-6.15-4.05-7.39-7.74-1.6-4.79-1.65-9.61.29-14.33,1.5-3.67,3.93-6.59,7.57-8.34,3.2-1.54,6.61-2.11,10.16-1.84,2.88.22,5.64.93,8.32,1.96.33.13.45.29.44.64-.02,1.22,0,2.44,0,3.67,0,0,0,0,0,0Z" style="fill: #fff;"/>
  <path d="m101.13,115.11c0,1.26,0,2.51,0,3.77,0,.32-.08.47-.44.55-1.51.31-1.51.32-2.23-1.02-.68-1.26-1.35-2.52-2.05-3.76-.1-.18-.34-.4-.52-.41-1.46-.09-2.94-.16-4.37.22-1.9.5-3.06,1.76-3.22,3.52-.1,1.07.32,1.99.96,2.81.94,1.2,2.25,1.91,3.54,2.63,1.65.93,3.33,1.81,4.93,2.83,1.43.91,2.65,2.09,3.57,3.55,2.16,3.42,1.71,9.23-3.23,12.08-1.84,1.06-3.84,1.61-5.94,1.79-3.07.26-6.09-.1-9.09-.75-.19-.04-.43-.31-.47-.5-.46-2.61-.89-5.22-1.31-7.83-.02-.12.12-.34.24-.39.41-.18.85-.28,1.26-.45.31-.13.49-.08.69.2.75,1.05,1.47,2.13,2.31,3.11.86,1.01,1.82,1.98,3.19,2.28,1.92.42,3.76.11,5.39-.99,2.23-1.51,2.37-4.42.25-6.29-.97-.86-2.12-1.53-3.23-2.22-1.86-1.15-3.83-2.13-5.62-3.37-2.06-1.43-3.39-3.43-3.6-6-.27-3.33,1.03-5.97,3.67-7.96,2.28-1.72,4.96-2.25,7.74-2.37,2.44-.11,4.85.22,7.26.59.41.06.33.34.33.57.01,1.27,0,2.55,0,3.82,0,0-.02,0-.03,0Z" style="fill: #fff;"/>
  <path d="m177.31,110.75c.14-.01.2-.02.27-.02,4.45-.03,8.9-.06,13.36-.11.46,0,.66.1.73.6.2,1.38.23,1.38-1.01,2.01-.94.47-1.88.95-2.82,1.4-.29.14-.4.31-.39.64.02,7.66.03,15.32.02,22.97,0,.53.14.85.64,1.08,1.16.54,2.28,1.14,3.42,1.71.29.14.39.3.34.64-.22,1.39-.21,1.38-1.62,1.39-4.09.05-8.18.1-12.27.18-.53.01-.71-.13-.77-.66-.15-1.37-.18-1.37,1.05-1.98.94-.47,1.87-.95,2.82-1.41.28-.14.41-.3.41-.63,0-7.8,0-15.59-.02-23.39,0-.18-.19-.43-.35-.52-1.15-.59-2.31-1.15-3.49-1.69-.44-.2-.6-.45-.5-.92.09-.42.13-.85.19-1.3Z" style="fill: #fff;"/>
  <path d="m177.12,97.03c0-.22,0-.43,0-.65,0-1.94,0-3.89-.03-5.83,0-.21-.18-.47-.36-.6-.29-.21-.64-.34-.97-.48-.45-.2-.61-.52-.42-1.06.67,0,1.36,0,2.05,0,1,0,2-.02,3,.01.17,0,.45.18.47.3.02.19-.08.48-.23.59-.33.24-.72.4-1.1.56-.35.15-.47.38-.47.76-.02,3.55-.04,7.09-.08,10.64,0,.31.17.7-.33.86-.81.26-.99.22-1.38-.31-2.31-3.09-4.61-6.18-6.92-9.27-.11-.15-.24-.29-.43-.52-.02.24-.04.38-.04.52,0,2.46,0,4.92-.01,7.38,0,.37.13.56.45.7.38.16.76.34,1.1.57.16.11.29.38.27.57-.01.12-.32.28-.5.29-1.5.05-3,.06-4.5.1-.27,0-.5,0-.57-.35-.07-.34-.02-.56.31-.71.36-.16.74-.31,1.06-.54.19-.14.4-.41.4-.62.06-3.11.11-6.23.12-9.34,0-.24-.24-.55-.46-.72-.29-.23-.7-.31-1-.53-.18-.14-.24-.44-.36-.66.2-.08.39-.23.59-.24.96-.05,1.93-.04,2.9-.1.48-.03.76.15,1.03.51,1.97,2.62,3.95,5.22,5.93,7.82.11.15.23.29.35.43.05-.02.1-.04.14-.06Z" style="fill: #fff;"/>
  <path d="m12.79,94.49c.3.18.54.29.74.43,1.31.91,1.96,2.13,1.74,3.75-.23,1.7-1.25,2.67-2.86,3.05-.68.16-1.39.27-2.09.29-1.98.06-3.96.07-5.95.1-.33,0-.62-.02-.72-.42-.1-.41.16-.6.46-.68,1.17-.32,1.42-1.06,1.38-2.22-.09-2.75-.01-5.5-.03-8.25,0-.22-.19-.5-.38-.63-.33-.24-.75-.36-1.07-.61-.17-.14-.24-.44-.28-.68,0-.05.34-.22.52-.22,2.19-.02,4.38-.08,6.57,0,.8.03,1.66.25,2.36.63,1.95,1.04,1.97,3.93.11,5.12-.14.09-.29.18-.5.32Zm-4.8,2.95s-.02,0-.03,0c.03.63.04,1.27.11,1.9.06.53.35,1.02.92,1.03.86.02,1.74-.04,2.59-.22.32-.07.68-.49.82-.83.17-.41.17-.91.17-1.36-.01-1.13-.5-1.79-1.61-2.01-.87-.17-1.77-.17-2.66-.21-.1,0-.28.23-.29.36-.04.44-.01.89-.01,1.34Zm.02-5.16h-.01c0,.48-.02.96.01,1.44,0,.12.2.34.29.33.97-.03,1.93-.13,2.77-.68.93-.6,1.23-2.02.59-2.92-.12-.17-.39-.34-.59-.34-.87,0-1.75.02-2.62.1-.16.01-.4.33-.42.52-.06.51-.02,1.03-.02,1.54Z" style="fill: #fff;"/>
  <path d="m205.93,88.25c1.53.09,3.07.09,4.59.28,2.86.36,4.68,2.37,4.92,5.26.13,1.55.04,3.06-.66,4.48-1.18,2.42-3.22,3.59-5.82,3.74-2.29.13-4.59.07-6.88.1-.3,0-.58.01-.67-.39-.1-.41.21-.49.45-.64.04-.03.09-.06.14-.07,1.11-.25,1.36-.93,1.32-2.05-.1-2.8-.02-5.61,0-8.41,0-.35-.12-.53-.42-.67-.39-.17-.79-.35-1.14-.59-.16-.11-.28-.39-.26-.58.01-.11.32-.28.5-.28,1.31-.02,2.62-.01,3.93-.01,0-.05,0-.11,0-.16Zm3.42,1.81s0-.03,0-.04c-.94.08-1.89.17-2.83.23-.47.03-.66.25-.66.71,0,1.19-.02,2.37-.01,3.56,0,1.55.02,3.1.06,4.64.02.67.4,1.05,1.07,1.1.65.05,1.31.05,1.96,0,1.95-.14,3.23-1.32,3.63-3.23.35-1.68.18-3.33-.26-4.95-.47-1.75-.83-1.99-2.64-2.04-.1,0-.21,0-.31,0Z" style="fill: #fff;"/>
  <path d="m42.37,88.26c1.63.08,3.28.05,4.9.27,2.98.4,4.61,2.14,5.02,5.12.23,1.7.02,3.34-.78,4.86-1.19,2.26-3.18,3.37-5.66,3.5-2.25.12-4.52.05-6.78.06-.1,0-.22.02-.31-.02-.16-.09-.41-.21-.43-.33-.02-.16.11-.42.26-.51.37-.24.78-.43,1.19-.61.29-.13.39-.32.39-.64-.02-3.13-.02-6.26,0-9.4,0-.35-.12-.53-.43-.66-.37-.15-.71-.36-1.06-.53-.28-.14-.48-.37-.33-.65.08-.15.36-.27.56-.28,1.16-.03,2.31-.01,3.47-.01,0-.05,0-.11,0-.16Zm.29,6.5c0,.31,0,.62,0,.93.03,1.18.02,2.37.1,3.55.05.7.41,1,1.12,1.05.65.04,1.31.04,1.96,0,1.61-.1,2.75-.92,3.29-2.41.85-2.37.5-4.7-.46-6.97-.2-.47-.59-.74-1.09-.74-1.46,0-2.92.05-4.38.1-.38.01-.55.2-.54.63.03,1.29.01,2.58.01,3.87Z" style="fill: #fff;"/>
  <path d="m117.05,94.51c-.11-.12-.16-.21-.25-.26-1.68-.86-1.73-3.76-.02-5.04.77-.57,1.65-.92,2.58-.97,1.23-.06,2.48,0,3.71.1.71.06.87.33.83,1.04-.04.76-.1,1.51-.13,2.27-.01.34-.17.49-.48.56-.34.07-.49-.07-.62-.37-.84-1.94-1.31-2.2-3.41-1.98-.75.08-.95.27-1.07,1.01-.03.15-.04.31-.07.46-.22,1.31.5,2.23,1.82,2.35.45.04.9.05,1.34.03.31-.01.42.09.42.41,0,1.1.02,1.09-1.04,1.22-.53.06-1.07.1-1.58.22-1.12.26-1.72,1.05-1.8,2.34-.06,1.01.56,1.97,1.57,2.3,1.15.37,2.32.29,3.45-.08.24-.08.49-.46.53-.73.13-.83.2-1.67.23-2.51.03-.81,0-1.62-.04-2.42-.02-.45.16-.72.61-.8,1.74-.28,3.34-.91,4.86-1.8.49-.29.95-.02,1.06.56.15.79-.19,1.37-.84,1.8-.92.61-1.97.79-3.04.92-.14.02-.27.03-.41.05-.03,0-.05.04-.09.08.27,1.04.45,2.1.2,3.19-.46,2.04-1.83,3.18-3.78,3.68-1.39.36-2.81.31-4.19-.08-1.76-.51-2.7-1.65-2.83-3.39-.13-1.7.76-3.29,2.26-4.03.05-.02.09-.04.2-.1Z" style="fill: #fff;"/>
  <path d="m19.76,95.34c.15-2.42,1-4.79,3.54-6.26,2.52-1.45,6.34-1.18,8.5.59,1.02.83,1.54,1.94,1.82,3.16.45,1.95.25,3.86-.66,5.67-1.36,2.72-4.17,4.17-7.3,3.8-1.77-.21-3.37-.74-4.53-2.18-1.05-1.3-1.33-2.84-1.38-4.78Zm2.58-.44s.06.02.09.02c.05.58.05,1.17.15,1.74.4,2.32,1.8,4.08,4.61,3.82,1.84-.17,3.09-1.13,3.54-2.87.4-1.52.37-3.07.02-4.59-.34-1.47-1.2-2.47-2.74-2.73-1.31-.22-2.61-.12-3.9.18-.65.15-1.08.53-1.21,1.19-.21,1.07-.38,2.15-.57,3.23Z" style="fill: #fff;"/>
  <path d="m227.59,88.15c.46.1,1.32.2,2.13.46,1.75.57,2.95,1.77,3.5,3.53.68,2.17.59,4.32-.42,6.37-1.32,2.69-4.16,4.17-7.25,3.77-.86-.11-1.74-.31-2.54-.64-1.89-.79-2.87-2.33-3.23-4.3-.45-2.44-.04-4.7,1.53-6.66,1.5-1.88,3.54-2.59,6.29-2.54Zm3.31,7.2l-.08-.02c-.05-.65-.06-1.31-.16-1.95-.27-1.74-1.3-2.86-2.86-3.1-1.31-.2-2.61-.11-3.9.22-.59.15-.94.49-1.13,1.08-.55,1.74-.65,3.52-.31,5.3.49,2.61,2.04,3.83,4.66,3.6,1.59-.14,2.84-.9,3.32-2.51.25-.84.31-1.75.46-2.62Z" style="fill: #fff;"/>
  <path d="m82.74,95.54c.83,0,1.66-.01,2.48,0,.36,0,.78.02.81.51.04.54-.4,1.02-.86,1.02q-.67,0-.67.7c0,.93-.01,1.86-.02,2.79,0,.38-.15.61-.52.78-2.12.96-4.33,1.23-6.62.8-2.57-.49-4.27-2.19-4.75-4.75-.28-1.49-.24-2.98.23-4.43,1.17-3.64,4.4-4.91,7.12-4.77,1.22.06,2.43.41,3.65.66.44.09.64.37.61.86-.04.79-.02,1.58,0,2.37,0,.31-.06.53-.41.62-.36.09-.49-.14-.62-.39-.25-.49-.46-1.01-.77-1.46-.16-.24-.48-.49-.75-.53-1.39-.19-2.78-.22-4.17.05-1.08.21-1.78.8-2.04,1.92-.39,1.67-.44,3.36,0,5.01.75,2.8,2.75,3.69,5.6,3.06.97-.21,1.03-.36.94-1.36-.03-.38-.05-.76-.07-1.13-.02-.41-.19-.68-.65-.7-.36-.01-.72-.06-1.08-.07-.4-.01-.68-.16-.7-.59-.02-.53.3-.94.72-.95.85,0,1.69,0,2.54,0Z" style="fill: #fff;"/>
  <path d="m196.23,102.09c-.55,0-1.09,0-1.62,0-2.83.02-5.66.03-8.49.05-.29,0-.6.06-.7-.35-.09-.39.11-.58.42-.71.06-.03.12-.08.18-.09,1.08-.26,1.3-.95,1.26-2-.09-2.8-.04-5.61-.02-8.42,0-.34-.08-.53-.41-.66-.37-.14-.73-.33-1.04-.56-.17-.13-.25-.4-.36-.6.19-.11.39-.3.58-.31.77-.04,1.55-.01,2.33-.02,2.17-.02,4.35-.05,6.52-.08,1.14-.02,1.37.21,1.36,1.34,0,.64.01,1.27-.03,1.91-.01.18-.15.45-.29.51-.27.1-.59.08-.72-.3-.02-.06-.06-.12-.09-.19-.46-1.12-1.28-1.66-2.51-1.58-.72.05-1.45.08-2.17.13-.41.03-.66.22-.66.68.01.96-.01,1.93.01,2.89,0,.09.2.25.32.26.57.04,1.14.08,1.71.04.21-.01.46-.2.59-.38.22-.3.32-.69.55-.99.12-.16.38-.28.58-.28.3,0,.33.26.33.53,0,1.24,0,2.48,0,3.72,0,.27-.01.51-.37.57-.34.06-.61.01-.71-.33-.31-1.06-1.06-1.3-2.04-1.17-.03,0-.07,0-.1,0-.85.01-.87.01-.87.86,0,.84,0,1.69.05,2.53.04.74.44,1.17,1.18,1.18,1.08,0,2.17-.07,3.25-.15.22-.02.47-.21.63-.39.36-.41.7-.86,1.01-1.31.2-.29.43-.29.72-.18.32.12.26.34.21.59-.2,1.05-.4,2.09-.61,3.25Z" style="fill: #fff;"/>
  <path d="m61.31,94.02c.76,0,1.44.02,2.13-.02.16,0,.36-.19.46-.35.19-.3.27-.69.5-.95.15-.18.48-.23.74-.26.05,0,.2.34.21.52.02,1.2,0,2.41,0,3.61,0,.31,0,.57-.41.66-.41.09-.57-.12-.71-.42-.11-.23-.21-.48-.36-.68-.13-.16-.33-.36-.52-.38-.58-.05-1.17-.03-1.76,0-.1,0-.27.21-.27.33-.02,1-.04,2,0,2.99.03.75.46,1.2,1.22,1.21,1.07.01,2.13-.06,3.2-.15.25-.02.52-.26.7-.46.36-.4.66-.84.98-1.27.19-.25.4-.27.68-.15.32.13.25.36.2.6-.18.94-.38,1.89-.54,2.84-.05.31-.17.39-.47.39-3.23,0-6.45.03-9.68.05-.29,0-.58.05-.69-.36-.1-.4.14-.52.41-.66.35-.18.73-.32,1.06-.54.18-.12.38-.38.39-.57.02-3.08,0-6.16.02-9.24,0-.45-.11-.74-.57-.9-.35-.13-.7-.31-1-.54-.16-.12-.29-.4-.27-.58.01-.12.33-.29.51-.29,3.04-.04,6.07-.07,9.11-.09.87,0,1.15.3,1.15,1.15,0,.71.02,1.41-.02,2.12,0,.17-.17.45-.31.48-.25.05-.58.17-.73-.24-.56-1.47-1.66-2.02-3.19-1.81-.6.08-1.2.1-1.79.19-.14.02-.36.25-.36.38-.03,1.1-.02,2.2-.02,3.41Z" style="fill: #fff;"/>
  <path d="m99.8,102.13c-.83,0-1.66.02-2.48-.01-.19,0-.46-.15-.55-.31-.15-.27-.01-.52.29-.66.35-.16.67-.35,1.02-.5.35-.14.48-.34.36-.72-.21-.63-.38-1.28-.62-1.91-.05-.14-.29-.3-.45-.3-1.16-.01-2.31.02-3.47.02-.34,0-.53.12-.62.47-.14.57-.34,1.12-.52,1.67-.11.33,0,.56.3.73.3.16.63.32.88.54.14.13.24.42.21.6-.02.13-.31.28-.49.29-1.29.05-2.59.07-3.88.08-.16,0-.45-.11-.46-.18-.02-.25.07-.5.12-.75,0-.01.02-.03.04-.03,1.03-.48,1.32-1.46,1.67-2.41,1.14-3.15,2.31-6.29,3.44-9.44.15-.42.37-.66.82-.73.37-.06.75-.16,1.1-.29.38-.14.52.01.64.34,1.03,2.92,2.07,5.83,3.11,8.74.3.84.62,1.68.88,2.53.14.47.49.69.87.89.15.08.29.18.45.26.33.16.52.42.35.74-.09.16-.4.27-.62.27-.79.03-1.59.01-2.38.01,0,.02,0,.03,0,.05Zm-4.03-10.73c-.06,0-.13,0-.19,0-.52,1.54-1.05,3.07-1.58,4.64h3.25c-.51-1.61-.99-3.13-1.48-4.65Z" style="fill: #fff;"/>
  <path d="m246.75,90.24c0,.43.03.86-.01,1.29-.02.2-.14.5-.29.56-.31.13-.58,0-.74-.35-.24-.51-.5-1.02-.81-1.5-.12-.19-.42-.38-.63-.37-.6.01-1.22.03-1.78.21-1.18.37-1.51,1.72-.63,2.6.44.44,1,.78,1.54,1.12.68.44,1.4.81,2.07,1.27,1.37.94,2.13,2.2,1.82,3.92-.34,1.83-1.62,2.73-3.31,3.15-1.58.39-3.15.18-4.72-.11-.12-.02-.29-.2-.31-.33-.19-1-.36-2-.49-3-.02-.14.18-.4.33-.45.18-.05.49,0,.6.12.34.38.59.84.92,1.24.85,1.03,2.12,1.26,3.31.63,1.09-.58,1.35-1.77.51-2.67-.4-.43-.92-.78-1.42-1.1-.72-.46-1.51-.83-2.23-1.31-1.21-.8-1.85-1.93-1.69-3.42.16-1.52,1.09-2.48,2.44-3.08,1.43-.63,2.93-.59,4.43-.41,1.4.17,1.15.05,1.14,1.32,0,.22,0,.45,0,.67-.01,0-.03,0-.04,0Z" style="fill: #fff;"/>
  <path d="m144.91,98.61c.52-1.52.98-2.86,1.43-4.21.42-1.24.82-2.48,1.25-3.71.13-.38.05-.62-.29-.82-.3-.17-.62-.32-.87-.55-.15-.14-.28-.41-.25-.6.02-.12.33-.29.51-.3,1.29-.04,2.59-.06,3.88-.06.16,0,.42.11.44.21.04.21-.04.45-.09.67,0,.04-.07.08-.11.1-1,.47-1.27,1.41-1.6,2.34-1.18,3.3-2.39,6.59-3.57,9.89-.13.37-.37.51-.72.56-1.57.22-1.18.47-1.7-.98-1.28-3.56-2.53-7.12-3.81-10.68-.09-.25-.32-.46-.52-.66-.13-.13-.32-.21-.47-.32-.29-.21-.59-.49-.41-.84.08-.16.48-.23.74-.24,1.47-.03,2.93-.03,4.4-.04.25,0,.54-.03.6.33.06.34-.07.55-.39.68-.3.12-.58.31-.89.42-.44.15-.47.44-.35.81.8,2.45,1.59,4.9,2.39,7.35.06.18.21.34.39.63Z" style="fill: #fff;"/>
  <path d="m158.05,88.38c.85,0,1.69,0,2.54,0,.27,0,.52,0,.59.35.07.32-.03.52-.33.66-.36.16-.7.37-1.07.52-.32.12-.39.33-.38.64,0,3.13.01,6.26,0,9.39,0,.32.08.51.38.64.4.17.8.34,1.15.58.15.1.28.38.26.56-.02.13-.29.34-.45.34-1.76.05-3.52.07-5.28.06-.16,0-.42-.2-.45-.34-.03-.17.09-.46.23-.56.35-.24.75-.42,1.15-.58.34-.14.45-.35.45-.71-.01-2.87-.06-5.75.02-8.62.02-.91-.17-1.44-1.06-1.72-.38-.12-.92-.3-.78-.86.14-.55.67-.27,1.02-.29.67-.04,1.34-.01,2.02-.01,0-.01,0-.02,0-.04Z" style="fill: #fff;"/>
  <path d="m172.75,84.47c.24.07.68.16,1.09.33.91.4,1.8.38,2.69-.02.24-.11.52-.28.68.12.15.34.39.68-.08.98-.25.15-.48.34-.7.52-.82.66-1.72.76-2.66.32-.98-.46-1.93-.54-2.92-.03-.15.08-.52.06-.53.02-.09-.31-.27-.78-.13-.93.63-.68,1.33-1.31,2.56-1.31Z" style="fill: #fff;"/>
</svg>
