<?xml version="1.0" encoding="UTF-8"?>
<svg id="a" data-name="Capa 1" xmlns="http://www.w3.org/2000/svg" viewBox="0 0 41.53 59.78">
  <path d="m40.04,22.27c.52-5.7-.96-10.82-4.67-15.22C31.66,2.64,26.97.16,21.13.07c1.22-.11,2.42-.04,3.62.2,3.58.73,6.81,2.2,9.61,4.52,3.64,3.02,5.92,6.85,6.8,11.52.56,2.96.48,5.88-.23,8.82-.22.93-.14,1.94-.11,2.92.06,2.03-.47,3.91-1.34,5.7-1.57,3.22-4.07,5.38-7.48,6.47-2.01.64-4.06.71-6.11.21-1.01-.25-1.98.04-2.96.09-2.07.1-4.12.06-6.15-.41-2.16-.49-4.21-1.26-6.13-2.37-3.01-1.74-5.44-4.08-7.33-7-1.68-2.59-2.77-5.41-3.16-8.48-.29-2.26-.21-4.51.31-6.75.64-2.75,1.73-5.3,3.47-7.52,1.77-2.26,3.93-4.1,6.48-5.46,1.65-.88,3.37-1.58,5.19-2.03,1.43-.36,2.87-.6,4.36-.49.14.01.29.03.33.03-1.07.11-2.25.13-3.39.36-4.98,1.01-8.89,3.71-11.86,7.79-1.94,2.66-3.17,5.63-3.7,8.89-.61,3.78-.22,7.45,1.23,10.97,1.27,3.09,3.21,5.71,5.86,7.79,2.78,2.17,5.91,3.47,9.4,3.92,1.78.23,3.57.12,5.35-.06.04,0,.08-.04.21-.1-.18-.11-.31-.2-.44-.27-2.03-1.05-3.74-2.49-5.06-4.37-1.79-2.55-2.67-5.39-2.46-8.51.31-4.66,2.55-8.14,6.63-10.43,2.56-1.43,5.3-1.97,8.19-1.46,4.25.75,7.32,3.14,9.23,7.01.12.25.27.49.4.73.04-.02.08-.04.12-.06Zm-23.91,5.56c-.07,2.46.58,4.72,1.92,6.74,1.39,2.1,3.34,3.54,5.72,4.4.69.25,1.35.35,2.1.12,3.59-1.11,6.66-3.03,9.18-5.82,2.36-2.61,3.93-5.63,4.67-9.06.09-.43.14-.96-.03-1.34-.91-2.09-2.43-3.68-4.32-4.92-1.86-1.22-3.92-1.83-6.11-2.05-2.05-.2-4.07.04-5.9.96-4.51,2.25-6.92,5.94-7.23,10.97Zm24.43-1.3c-2.28,6.31-6.54,10.67-12.83,13.07.28.05.56.07.84.05,1.25-.09,2.49-.3,3.67-.73,3.4-1.22,6.02-3.33,7.55-6.66.84-1.82,1.13-3.72.77-5.72Z" style="fill: #fff;"/>
  <path d="m1.22,52.28c0-4.02,3.22-7.29,7.56-7.22,3.82.06,7.17,3.19,7.13,7.4-.04,4.2-3.15,7.25-7.12,7.32-4.25.08-7.61-2.91-7.57-7.5Zm7.47,6.96c1.13.03,2.26-.3,3.26-.96,1.69-1.13,2.68-2.74,3.01-4.73.47-2.87-.98-6.09-3.7-7.33-2.46-1.12-4.76-.86-6.79.9-1.9,1.65-2.64,3.79-2.32,6.3.35,2.82,2.76,5.92,6.54,5.83Z" style="fill: #fff;"/>
  <path d="m17.76,45.38c1.61.04,3.16-.1,4.7.31,3.14.83,3.34,3.87,2.21,5.65-.56.87-1.42,1.27-2.38,1.51-.13.03-.26.06-.5.11.31.23.53.39.75.56.83.61,1.18,1.52,1.58,2.42.31.69.65,1.38,1.04,2.03.4.67,1.07.93,1.83.95.27,0,.48.05.49.44-.34,0-.67.04-.99,0-1.3-.18-2.15-.94-2.65-2.14-.27-.65-.54-1.3-.86-1.92-.63-1.22-1.57-2.02-3-2.09-.45-.02-.91-.07-1.45-.12,0,.78-.01,1.51,0,2.24.03,1.27.06,2.54.11,3.8.01.39-.27.3-.47.34-.21.04-.45.07-.44-.27,0-.4,0-.8,0-1.19,0-3.69.01-7.37.02-11.06,0-.5,0-1,0-1.55Zm.8,3.81s0,0,0,0c0,.49,0,.98,0,1.47,0,.49-.01.98-.01,1.47,0,.22-.05.49.32.47.84-.04,1.69,0,2.51-.15.66-.12,1.35-.36,1.9-.72,1.01-.65,1.38-2.09,1.02-3.43-.21-.79-.61-1.41-1.37-1.8-1.33-.68-2.75-.61-4.17-.58-.07,0-.18.19-.18.29-.01.99,0,1.99,0,2.98Z" style="fill: #fff;"/>
  <path d="m35.26,45.37c.23,0,.44-.04.64.01.12.03.28.18.31.3,1.15,4.06,2.29,8.13,3.44,12.2.11.38.3.73.46,1.1.06.13.11.26.19.47-.36,0-.65.03-.93-.02-.09-.01-.19-.2-.22-.32-.4-1.5-.78-3.01-1.2-4.5-.03-.12-.26-.26-.4-.26-1.27-.02-2.54,0-3.81,0-.26,0-.37.09-.43.34-.4,1.5-.82,3-1.26,4.5-.04.13-.27.28-.41.28-.21,0-.27-.16-.2-.4.46-1.44.91-2.88,1.34-4.33.65-2.18,1.29-4.36,1.93-6.54.18-.6.38-1.19.52-1.8.07-.3.01-.63.01-1.02Zm-1.67,8.44c.51,0,.93,0,1.36,0,.78.01,1.56.02,2.33.05.37.01.47-.14.34-.48-.05-.14-.09-.29-.13-.44-.52-1.75-1.04-3.51-1.55-5.26-.06-.22-.12-.44-.17-.66-.05,0-.11,0-.16-.01-.67,2.25-1.33,4.51-2.01,6.8Z" style="fill: #fff;"/>
  <path d="m29.5,59.47c-.27,0-.51.01-.5-.4.04-1.65.07-3.3.07-4.95,0-2.63-.03-5.26-.04-7.89,0-.09,0-.18-.01-.28-.04-.52.24-.75.74-.56.11.04.21.28.2.43-.02,2.69-.08,5.38-.09,8.07,0,1.73.06,3.45.1,5.18,0,.37-.03.41-.47.41Z" style="fill: #fff;"/>
</svg>
