<?xml version="1.0" encoding="UTF-8"?>
<svg id="a" data-name="Capa 1" xmlns="http://www.w3.org/2000/svg" viewBox="0 0 85 8.87">
  <path d="m37.75,3.74c-.09-.15-.19-.29-.27-.44-.44-.83-.93-1.64-1.7-2.2-.41-.3-.9-.53-1.38-.66-.94-.25-1.7.15-2.06,1.06-.19.49-.33,1.01-.39,1.53-.16,1.23-.16,2.47.19,3.67.12.42.33.85.62,1.18.61.71,1.43.66,2.24.44,1.11-.31,1.91-1.04,2.53-1.98.13-.19.24-.39.36-.59.29.03.2.19.12.33-.75,1.55-2,2.46-3.69,2.7-1.77.25-3.34-.2-4.63-1.48-1.82-1.79-1.75-6.01,2.14-7.1,1.18-.33,2.35-.29,3.48.26.13.07.28.11.41.17.58.28,1.1.15,1.58-.23.1-.08.22-.16.42-.3.07,1.25.14,2.41.2,3.57-.05.02-.1.04-.15.06Zm-5.71,4.55c-1.02-1.2-1.4-2.55-1.36-4.03.05-1.49.47-2.83,1.69-3.86-1.6-.04-3.33,1.7-3.52,3.48-.23,2.09,1.1,3.98,3.19,4.41Zm5.01-6.37c-.03-.38-.06-.68-.09-.99-.23.06-.42.11-.65.17.24.27.45.51.74.82Z" style="fill: #fff;"/>
  <path d="m0,8.46c.06-.05.12-.13.19-.14.15-.02.3-.01.45-.02.56-.01.8-.25.8-.81,0-1.49,0-2.98,0-4.47,0-.48-.15-.66-.63-.74-.12-.02-.26,0-.38-.03-.14-.03-.27-.09-.41-.13.14-.04.28-.09.42-.11.15-.02.3,0,.45,0,1.5,0,3,0,4.5,0,.39,0,.78.04,1.17.11,1.61.28,2.75,1.66,2.7,3.23-.05,1.73-1.11,2.91-2.82,3.14-.34.05-.69.07-1.03.07-1.66,0-3.33,0-4.99,0H.06s-.04-.07-.06-.1Zm3.76-.15c.4,0,.77,0,1.15,0,.89,0,1.24-.25,1.52-1.09.33-.97.32-1.97.21-2.97-.04-.41-.16-.81-.31-1.2-.16-.43-.5-.75-.97-.78-.53-.04-1.06,0-1.61,0v6.05ZM1.54,2.26c.05.43.13.82.13,1.22.02,1.11.02,2.22,0,3.33,0,.49-.06.99-.1,1.49h1.38V2.26h-1.42Zm4.58,5.98c1.33-.15,2.36-1.6,2.23-3.18-.11-1.33-1.32-2.82-2.28-2.73,1.17,1.3,1.19,4.5.04,5.91Z" style="fill: #fff;"/>
  <path d="m65.44,4.4c-1.16-1.25-2.29-2.55-4.28-2.09v2.65c.63.11,1.14-.1,1.57-.53.13-.13.22-.3.34-.43.06-.07.16-.1.24-.14.03.08.1.15.1.23,0,.69,0,1.39,0,2.08,0,.07-.07.15-.11.22-.07-.04-.15-.08-.22-.13-.27-.25-.52-.52-.8-.75-.32-.26-.7-.31-1.12-.23v3.05c1.8.26,3.04-.62,4.08-1.92.08-.1.19-.18.28-.27.03.02.05.04.08.06v2.36h-8.27c.11-.09.15-.14.21-.17.04-.02.09,0,.14,0,1.13-.11,1.17-.15,1.17-1.31,0-1.34,0-2.68,0-4.02,0-.52-.2-.73-.72-.77-.2-.01-.39,0-.59-.02-.05,0-.09-.07-.13-.11.04-.04.08-.1.13-.11.06-.02.14,0,.21,0,2.47,0,4.94,0,7.41,0,.28,0,.38.07.38.37-.02.65,0,1.31,0,1.96-.04.02-.07.05-.11.07Zm-5.06,3.92V2.27h-1.41c.04.38.1.75.11,1.11.01,1.19.01,2.38,0,3.56,0,.45-.07.89-.1,1.37h1.41Zm4.59,0v-1.14c-.5.38-.97.75-1.48,1.14h1.48Zm-.14-6.02h-1.35c.46.37.9.71,1.35,1.07v-1.07Zm-1.97,3.32v-.99c-.26.19-.48.35-.71.52.25.17.47.31.71.47Z" style="fill: #fff;"/>
  <path d="m68.42,3.32c0,1.3-.02,2.52,0,3.75.01.56.55,1.11,1.1,1.24.11.03.21.08.31.11,0,.03-.01.06-.02.1h-3.25l-.04-.05c.08-.05.15-.11.23-.13.96-.23,1.34-.7,1.34-1.68,0-1.12,0-2.24,0-3.36,0-.26-.07-.46-.29-.58-.38-.22-.78-.42-1.19-.64.03-.01.09-.07.14-.07,1.13,0,2.26-.01,3.39,0,.13,0,.27.11.37.21,1.13,1.03,2.25,2.06,3.37,3.09.08.08.17.15.33.29,0-.33,0-.57,0-.82,0-.36,0-.72,0-1.07-.02-.78-.48-1.33-1.23-1.49-.07-.02-.15-.05-.22-.08,0-.03.01-.06.02-.09h3.38c-.12.09-.18.16-.24.17-1.02.22-1.41.69-1.41,1.72,0,1.48,0,2.96,0,4.43v.49c-.21-.14-.35-.21-.47-.32-1.79-1.66-3.58-3.33-5.37-5-.07-.06-.14-.12-.27-.22Zm5.89,5.11c0-.6.01-1.08,0-1.56,0-.11-.1-.23-.19-.31-1.5-1.38-3.01-2.76-4.52-4.13-.07-.07-.17-.16-.26-.16-.57-.01-1.14,0-1.71,0,2.22,2.05,4.41,4.07,6.68,6.17Zm-.54-6.16c.19.2.35.37.52.55.08-.19.16-.35.24-.55h-.76Zm-6.17,6.02h.77c-.09-.2-.16-.38-.24-.56-.17.18-.33.35-.53.56Z" style="fill: #fff;"/>
  <path d="m55.07,8.45c-.1.04-.19.1-.29.1-1.5,0-3,0-4.5,0h-.33s-.02-.08-.03-.12c.08-.04.16-.1.24-.11,1.17-.12,1.17-.12,1.17-1.29,0-1.47,0-2.93,0-4.4,0-.12,0-.25,0-.38-.52-.09-.93.09-1.22.42-.47.53-.87,1.13-1.28,1.7-.08.11-.11.25-.19.37-.04.05-.12.09-.19.1-.02,0-.09-.1-.09-.15,0-.89,0-1.77,0-2.68h8.26v2.93c-.12-.14-.21-.2-.24-.28-.36-.79-.88-1.46-1.52-2.04-.4-.37-.66-.43-1.22-.35v.4c0,1.52.02,3.05,0,4.57-.01.76.2,1.1,1.21,1.09.06,0,.11-.01.17-.02l.07.13Zm-2.1-.16c-.02-.3-.06-.58-.06-.86,0-1.59,0-3.18,0-4.77,0-.13-.01-.26-.02-.4h-1.31c0,.15,0,.27,0,.39,0,1.35,0,2.7,0,4.05,0,.53-.05,1.06-.08,1.59h1.47Zm2.97-6.02h-1.01c.32.33.67.7,1.01,1.04v-1.04Zm-7.32,1.03c.31-.37.57-.69.86-1.04h-.86v1.04Z" style="fill: #fff;"/>
  <path d="m41.78,8.54h-3.63c.08-.1.12-.2.17-.21.69-.14,1.14-.62,1.47-1.18.75-1.23,1.45-2.49,2.17-3.74.26-.46.52-.92.8-1.38.05-.09.17-.22.23-.21.1.02.2.13.26.22,1.05,1.87,2.11,3.74,3.15,5.61.24.44.59.66,1.08.68.1,0,.21.05.31.08,0,.04-.02.08-.03.12h-5.1s-.02-.06-.03-.1c.09-.04.17-.1.27-.1.93-.08,1.01-.26.59-1.1-.19-.38-.42-.53-.85-.5-.63.04-1.27.02-1.9,0-.23,0-.3.09-.31.3-.04.67.33,1.1,1.08,1.25.11.02.22.08.33.13-.01.04-.02.07-.04.11Zm.89-5.86c-.22.37-.4.71-.6,1.02-.13.19-.11.34,0,.53.57,1.03,1.14,2.06,1.67,3.1.14.28.18.61.27.96h1.79c-1.05-1.88-2.07-3.71-3.13-5.61Zm.36,3.81c-.42-.76-.82-1.49-1.25-2.26-.41.78-.8,1.51-1.2,2.26h2.45Zm-3.17,1.19c-.22.2-.45.41-.69.63h.81c-.05-.25-.09-.47-.12-.63Z" style="fill: #fff;"/>
  <path d="m79,8.55h-3.58c.04-.09.06-.2.1-.21.97-.21,1.41-.98,1.86-1.74.56-.95,1.1-1.92,1.64-2.89.32-.56.64-1.12.96-1.68.19-.33.3-.33.49.01,1.04,1.85,2.08,3.7,3.11,5.56.26.47.61.74,1.15.74.09,0,.17.06.26.09l-.02.1h-5.09s-.03-.05-.04-.08c.08-.04.17-.11.25-.11.77.03,1.14-.19.6-1.13-.2-.35-.41-.48-.81-.46-.63.03-1.27.02-1.9,0-.27,0-.34.11-.34.34-.02.67.36,1.08,1.12,1.22.1.02.19.09.28.13-.01.03-.03.07-.04.1Zm4.04-.25c-1.05-1.88-2.08-3.72-3.13-5.61-.22.37-.4.7-.6,1.02-.12.19-.11.34,0,.53.58,1.06,1.16,2.12,1.72,3.19.13.25.14.55.21.87h1.81Zm-4.03-4.07c-.41.78-.8,1.51-1.19,2.25h2.44c-.42-.76-.82-1.48-1.25-2.25Zm-1.92,3.46c-.21.19-.44.41-.67.62h.8c-.05-.25-.1-.48-.14-.62Z" style="fill: #fff;"/>
  <path d="m12.97,2.14c.07-.04.15-.12.22-.12,1.6,0,3.21,0,4.81,0,.07,0,.13.08.19.13-.06.04-.12.09-.19.1-.15.02-.3,0-.45,0-.43.02-.59.25-.44.64.11.3.25.6.41.88.45.81.91,1.6,1.37,2.4.03.05.07.09.17.22.47-.94.97-1.79,1.34-2.7.25-.61-.3-1.35-.97-1.45-.13-.02-.26-.03-.42-.05.16-.2,2.59-.28,3.56-.14-.06.08-.09.18-.15.2-.61.17-1.03.57-1.33,1.09-1.01,1.7-2,3.42-3,5.13-.09.15-.22.27-.34.4-.1-.13-.22-.26-.3-.4-.91-1.64-1.84-3.28-2.73-4.93-.38-.71-.81-1.32-1.75-1.29,0-.03-.01-.06-.02-.1Zm1.24.13c1.26,2.04,2.38,4.15,3.57,6.31.21-.39.38-.73.58-1.04.14-.22.13-.4,0-.63-.69-1.25-1.37-2.51-2.02-3.78-.13-.25-.16-.55-.25-.86h-1.88Zm5.99,0c.2.34.38.66.57,1,.18-.31.38-.64.59-1h-1.17Z" style="fill: #fff;"/>
  <path d="m23.06,6.78c.57,0,1.02.43,1.02.99,0,.55-.46,1-1.02,1-.54,0-.96-.44-.95-1.01,0-.56.41-.97.95-.97Zm-.75.91c.04.17.06.26.08.35.09.29.32.46.59.44.13-.01.3-.27.34-.44.05-.22.03-.48-.03-.7-.09-.36-.42-.44-.68-.18-.15.15-.22.38-.31.53Z" style="fill: #fff;"/>
  <path d="m11.26,6.78c.57,0,1.01.45,1,1,0,.55-.47.99-1.03.98-.55-.01-.94-.44-.93-1.03.01-.56.41-.96.96-.95Zm.3.97c0-.42-.19-.73-.43-.73-.33,0-.61.35-.6.76,0,.38.28.71.61.72.2,0,.42-.39.42-.75Z" style="fill: #fff;"/>
</svg>
