<?xml version="1.0" encoding="UTF-8"?>
<svg id="a" data-name="Capa 1" xmlns="http://www.w3.org/2000/svg" viewBox="0 0 82.63 69.83">
  <path d="m65.25,15.79c-2.44-1.14-4.93-1.74-6.65-3.67-1.37,1.6-1.35,4.14-.02,5.58.14.15.53.18.75.11.73-.24,1.43-.57,2.16-.83.3-.11.62-.18.93-.18.16,0,.32.17.49.27-.11.13-.19.32-.33.38-.52.22-1.04.47-1.59.59-1.57.34-2.82,1.24-4.03,2.19-2.92,2.28-5.8,4.61-8.73,6.86-.61.47-1.37.86-2.12,1.03-2.12.47-3.82,1.65-5.47,2.94-1.94,1.5-3.87,3.02-5.78,4.55-.67.53-1.36.58-2.18.43-.7-.13-1.44-.16-2.15-.09-1.44.14-2.8-.14-4.15-.61-1.37-.47-2.78-.83-4.14-1.33-.91-.34-1.78-.79-2.62-1.29-2.62-1.54-5.22-3.12-7.83-4.68-.51-.3-1.01-.63-1.54-.88-.56-.26-.71-.67-.7-1.26.03-1.8.7-3.21,2.37-4.04.1-.05.2-.11.3-.17,1.7-.95,1.93-1.55,1.29-3.38q-.66-1.88-2.65-1.8c-.5.02-1,.05-1.5.1-1.44.14-2.17,1.05-1.89,2.62.16.87.51,1.73.89,2.54.56,1.23.44,1.85-.67,2.6-.15.1-.34.2-.41.35-.37.85-1.16,1.17-1.9,1.56-1.03.55-1.37,1.35-.92,2.44.31.75.73,1.45,1.17,2.14,1.49,2.33,3.03,4.65,3.68,7.38.25,1.04.28,2.14.35,3.21.02.27-.15.56-.24.84-.09,0-.19,0-.28,0-.09-.42-.26-.84-.26-1.26.05-3.4-1.49-6.2-3.32-8.89-.83-1.22-1.72-2.39-1.98-3.9-.18-1.08.26-1.84,1.09-2.45.2-.15.44-.25.66-.36,1.2-.6,1.28-.85.44-1.92-1.06-1.36-2.23-2.64-3.24-4.03-2.03-2.83-1.01-6.99,2.13-8.5,2.09-1,4.3-1.07,6.49-.15.86.36,1.68.83,2.57,1.1.6.18,1.32.22,1.93.08,1.19-.26,2.34-.68,3.54-1.04.15.6.08,1.15-.36,1.63-.79.86-1.57,1.74-2.39,2.65,2.11.6,4.22,1.19,6.46,1.05,1.06-.07,1.89-.59,2.52-1.44.4-.53.83-1.03,1.35-1.67.42,1.2.14,2.16-.08,3.11-.64,2.86-2.64,4.57-5.11,5.84-2.15,1.1-4.53,1.46-6.85,1.99-1.04.24-2.08.47-3.12.74-.3.08-.6.23-.87.38-.54.31-.55.98-.01,1.3,1.33.79,2.67,1.55,4,2.34.51.3,1,.31,1.56.1,1.36-.5,2.79-.87,4.11-1.44,1.62-.7,3.2-1.52,4.74-2.38,1.15-.64,2.23-1.4,3.31-2.15,1.04-.73,2.17-1.15,3.44-1.09.45.02.56-.16.63-.57.67-3.65,1.29-7.31,2.08-10.93.41-1.89,1.66-3.19,3.66-3.61,1.92-.41,3.74-.26,5.45.8,1.31.81,1.89,2.03,2.07,3.49.11.94.17,1.89.36,2.82.25,1.25,1.08,2.06,2.22,2.58.37.17.75.34,1.1.54,1.45.82,1.75,1.42,1.38,3.35-.12.64-.42,1.24-.62,1.86-.07.21-.1.45-.08.67.09.94.62,1.2,1.36.63,1.83-1.42,3.65-2.86,5.47-4.29.34-.27.87-.47.96-.81.09-.3-.34-.72-.46-1.11-.22-.71-.4-1.43-.56-2.15-.09-.43-.16-.8-.74-.74-.19.02-.4-.06-.6-.12-1.34-.36-1.95-1.33-1.44-2.62,1.4-3.49,3.75-6.08,7.47-7.19,1.55-.46,3.06-.16,4.5.56.45.22.88.47,1.34.67.96.41,1.92.13,2.52-.72.77-1.11,1.11-2.37,1.31-3.68.07-.45.21-.88.32-1.32l.32-.02c.21.62.49,1.23.62,1.87.3,1.48.11,2.93-.36,4.35-.25.76-.11.9.7.84,1.88-.14,3-1.21,3.56-2.89.29-.87.4-1.8.59-2.71.06-.28.09-.57.13-.86.07-.04.14-.08.21-.12.29.33.71.61.86.99,1.5,3.68,2.65,7.43,2.12,11.48-.25,1.95-1.26,3.38-3.08,4.17-1.84.8-3.51.38-5.03-.82-.71-.56-1.38-1.22-2.18-1.62-1.88-.95-3.48.05-4.41,1.53-.12.19.11.75.34,1,.71.76,1.47,1.49,2.27,2.16,2.95,2.45,4.18,5.75,4.92,9.37.52,2.57,1.32,5.07,2,7.61.28,1.04.01,1.61-1.04,1.9-1.16.31-2.36.47-3.54.73-.75.16-1.52.31-2.24.58-1.17.44-1.59,1.23-1.58,2.57,0,.31-.17.87-.29.88-.55.03-.42-.5-.45-.81-.19-2.02.18-3.99.92-5.85.71-1.78,1.64-3.48,2.48-5.21.07-.14.16-.3.28-.37.14-.08.32-.07.49-.09.02.16.13.38.06.48-.28.39-.08.66.14.97.71,1.05,1.4,2.12,2.1,3.18.3.46.36.8-.31,1.01-.71.22-1.38.59-2.09.82-.25.08-.56-.04-.85-.07.19-.25.33-.58.58-.72.47-.27,1.01-.41,1.5-.64.14-.06.32-.35.29-.41-.61-.97-1.25-1.92-1.98-3.02-1.2,2.3-2.2,4.53-2.71,6.96,1.43-.41,2.8-.82,4.19-1.2.83-.23,1.68-.38,2.52-.6.93-.25.95-.38.68-1.35-.5-1.74-.94-3.49-1.41-5.24-.49-1.86-.98-3.72-1.46-5.58-.46-1.8-1.52-3.22-2.83-4.49-1.08-1.04-2.17-2.06-3.25-3.1-.16-.16-.29-.35-.42-.53-.31-.42-.51-.85.32-1.32Zm-6.79-5.67c.61,1.42,1.33,2.5,2.58,3.05,1.18.52,2.4.95,3.6,1.44.52.21.93.1,1.41-.17,2.27-1.26,3.66-1.22,5.62.4.56.46,1.14.91,1.76,1.27,1.74,1.02,3.91.65,5.11-.87,1.15-1.44,1.32-3.17,1.23-4.9-.13-2.48-.91-4.84-1.59-7.21-.06-.2-.2-.37-.37-.69-.25.72-.45,1.29-.65,1.86-.81,2.32-2.8,3.71-5.01,3.48-1.07-.11-1.17-.32-.89-1.34.27-.97.44-1.97.65-2.96-.07-.02-.15-.03-.22-.05-.3.6-.56,1.22-.9,1.8-.89,1.51-2.51,1.85-3.73,1.09-2.07-1.29-4.23-1.6-6.55-.58-2.86,1.25-4.62,3.44-5.68,6.26-.13.34,0,1.02.25,1.2.44.32,1.07.39,1.63.53.07.02.23-.19.28-.32.33-.82.64-1.64.98-2.46.1-.23.25-.44.49-.84Zm-25.37,12.68c.09.99.11,1.69.24,2.38.34,1.78,1.31,2.91,3.72,3.08,1.62.11,2.81-.54,3.42-2.02.29-.7.19-.87-.54-1.01-2.74-.5-4.83-2.9-4.71-5.66.07-1.73.43-3.45.74-5.16.13-.72.4-1.45.76-2.09.63-1.15,1.95-1.41,3.05-.67.75.51,1.31,1.17,1.59,2.06.6,1.97.68,4,.87,6.03.1,1.06.36,2.16.82,3.11,1.11,2.34,4.33,3.23,6.57,1.97.36-.21.4-.43.17-.7-.66-.77-.52-1.6-.23-2.44.17-.49.4-.96.58-1.45.42-1.16.12-1.9-.99-2.45-.14-.07-.29-.13-.44-.19-2.21-.9-3.46-2.5-3.59-4.9-.02-.32-.05-.63-.07-.95-.11-2.41-.96-3.51-3.31-4.07-3.61-.86-5.75.26-6.59,3.65-.57,2.32-.99,4.69-1.41,7.04-.28,1.56-.45,3.13-.63,4.43Zm-.71-.17c-.43.03-.82.03-1.19.09-1.15.18-2.13.71-3.08,1.36-2.89,1.98-5.83,3.87-9.25,4.85-.81.23-1.61.53-2.42.79l-.04.22c1.17.63,2.32,1.28,3.5,1.88.17.09.46.03.66-.05,1.39-.56,2.77-1.13,4.16-1.71,1.4-.58,2.82-1.06,4.35-.45,2.14.85,3.08,2.56,3.4,4.71.13.91.89,1.36,1.71.9.41-.23.78-.55,1.15-.85,1.78-1.41,3.52-2.86,5.34-4.22,1.67-1.25,3.35-2.49,5.49-2.9.53-.1,1-.47,1.5-.71-.03-.06-.05-.12-.08-.18-3.55-.26-5.36-2.39-6.1-5.78-1.89,1.34-3.71,1.65-5.44-.27.06.49.16.9.34,1.27.9,1.85,2.4,2.84,4.44,3.04.6.06.74.36.67.92-.28,2.25-1.99,3.62-4.24,3.5-2.76-.15-4.35-1.47-4.68-4.15-.09-.73-.11-1.48-.17-2.28Zm-14.41-10.27l-.1-.16c-.44.17-.86.38-1.31.49-1.7.45-3.25.05-4.77-.78-2.23-1.21-4.53-1.3-6.85-.17-2.66,1.29-3.48,4.97-1.8,7.3,1.14,1.58,2.45,3.03,3.68,4.54.24.29.45.23.69.02.47-.4.38-.86.16-1.35-.58-1.26-1.16-2.5-1.01-3.95.11-1.06.59-1.82,1.6-2.14.62-.2,1.28-.29,1.93-.34,1.93-.16,3.86-.29,5.58-1.32.91-.54,1.66-1.24,2.2-2.14Zm-7.41,11.69c.06.04.12.09.18.13,2.82-.67,5.66-1.31,8.47-2.03,1.53-.39,2.97-1.03,4.18-2.07,1.36-1.17,2.19-2.66,2.64-4.42-.13.01-.19,0-.22.03-.09.06-.19.13-.27.2-.89.83-1.97,1.28-3.17,1.15-1.71-.18-3.42-.42-5.11-.77-1.24-.25-2.45-.42-3.71-.11.33.99.67,1.95.96,2.92.34,1.12-.03,2.15-1,2.79-.42.28-.89.46-1.29.76-.58.44-1.11.94-1.66,1.42Zm30.87-5.78c-.12-.99-.17-1.99-.37-2.96-.21-1.07-.62-2.09-1.47-2.85-.87-.78-2.12-.47-2.44.65-.33,1.17-.53,2.38-.82,3.56-.25.98-.06,1.86.36,2.75.71,1.49,1.5,1.85,3.06,1.29,1.66-.59,1.72-.69,1.67-2.45Zm-9.51,16.73c-.2-.72-.34-1.37-.57-1.98-1.04-2.66-2.98-3.52-5.67-2.49-1.36.52-2.68,1.12-4.02,1.69-.21.09-.4.23-.8.46.59.23.97.41,1.37.53,1.62.51,3.26.97,4.87,1.5,1.53.5,3.06.53,4.82.29Z" style="fill: #fff;"/>
  <path d="m16.34,35.25c.91.94,1.79,1.93,1.96,3.26.14,1.06.09,2.16.08,3.24,0,.15-.21.3-.33.44-.12-.15-.31-.28-.35-.44-.06-.28-.04-.59-.03-.88.11-2.25-.64-4.09-2.42-5.56-1.22-1.01-2.57-1.78-3.99-2.46-.65-.31-1.27-.71-1.86-1.13-.18-.13-.22-.45-.33-.68.24.02.51-.02.71.08,1.99.94,3.92,2.02,5.96,2.82,1.74.69,3.62,1.03,5.42,1.59,1.3.41,2.54.97,3.84,1.4.73.24,1.51.32,2.25.53,1.1.32,2.18.73,3.29,1.04.5.14,1.09.3,1.56.17,1.88-.53,3.75-1.1,5.57-1.79,3.15-1.18,6.18-2.66,8.57-5.05,1.19-1.2,2.57-1.93,3.99-2.74,2.12-1.22,4.12-2.67,6.19-3.97,1-.63,2.02-1.24,3.09-1.71.45-.19,1.09-.01,1.63.08.13.02.2.38.29.59-.2.02-.41.09-.59.05-.25-.05-.49-.19-.83-.34-.04.28-.1.47-.09.65.06,1.23-.36,2.31-1.02,3.32-.44.68-.93,1.35-1.34,2.05-.66,1.11-.75,2.22.11,3.28.14.17.26.37.39.55,0,.01.04.01.15.05.29-.5.57-1.04.9-1.54.13-.19.39-.28.59-.42.02.26.15.57.04.76-2.09,3.78-4.38,7.42-7.71,10.28-.32.28-.67.52-1.02.8-.39-.54-.06-.8.22-1.09,1.24-1.29,2.48-2.58,3.71-3.88.08-.08.12-.18.15-.23-1.74-.88-3.45-1.76-5.13-2.61-.27.73-.53,1.49-.84,2.24-.78,1.92-3.28,2.35-4.89.59-.25-.27-.51-.53-.86-.89-.5,2.51-1.72,4.19-4.16,4.74-.63.14-1.34.3-1.92-.3.49-.23,5.62-5.58,6.1-6.38.18.36.34.64.46.93.54,1.34,1.62,2.2,2.74,2.23.71.02,1.23-.28,1.6-.86.81-1.29.98-2.76,1.18-4.21.07-.54.06-1.09.14-1.62.03-.19.23-.36.35-.54.13.19.34.37.36.57.03.42,0,.86-.08,1.28-.13.75.12,1.34.7,1.79,1.29,1.01,2.78,1.62,4.33,2.08.38.11.7.02.93-.36.24-.41.53-.78.84-1.22-2.58-1.5-5.03-3.08-6.25-6.14-1.09.67-2.28,1.17-3.17,1.99-3.53,3.29-7.56,5.61-12.26,6.77-.96.24-1.86.73-2.82,1.01-.47.14-1.04.2-1.51.07-1.71-.46-3.39-.99-5.08-1.52-1.1-.35-2.19-.75-3.3-1.09-1.56-.48-3.13-.94-4.69-1.41-.49-.15-.97-.3-1.46-.45-.03.06-.05.11-.08.17Zm42.71-10.9c-.24.13-.44.22-.62.34-2.23,1.48-4.47,2.95-6.68,4.45-.14.1-.27.45-.2.59.28.57.58,1.13.97,1.63,1.21,1.57,2.87,2.63,4.53,3.66.32.2.58.1.55-.26-.02-.31-.14-.66-.34-.89-1.14-1.32-1.2-2.75-.44-4.22.47-.9,1.08-1.73,1.64-2.58.52-.8.79-1.65.6-2.72Z" style="fill: #fff;"/>
  <path d="m0,46.54c.37,0,.61,0,.85,0,26.98,0,53.97,0,80.95,0,.05,0,.1-.01.14,0,.23.09.46.19.69.29-.23.09-.47.27-.7.27-15.55.01-31.11,0-46.66,0-11.39,0-22.77-.01-34.16-.02-.37,0-.82.12-1.12-.54Z" style="fill: #fff;"/>
  <path d="m30.33,68.6c.14-.15.29-.3.43-.46.37-.43.68-.92,1.11-1.28.24-.21.69-.36.97-.27.22.07.37.52.46.82.09.3.06.63.11.94.02.11.14.26.23.28.1.02.28-.08.32-.17.23-.57.49-1.15.63-1.75.09-.38.15-.58.59-.49.38.07.77.06,1.16.08.66.03,1.27.01,1.57-.76.06-.16.4-.21.61-.31.1.23.29.46.28.68,0,.28-.2.55-.28.83-.13.46-.24.93-.4,1.53,1.71-.43,2.63-1.77,3.87-2.59.07.05.14.11.21.16l-.53,1.73s.09.05.13.07c.32-.36.64-.73.96-1.09.14-.15.25-.36.43-.43.44-.19.9-.31,1.36-.46.06.4.12.81.16,1.21.02.16-.05.32-.03.47.03.19.06.47.18.53.13.07.42-.01.55-.13.67-.57,1.32-1.17,1.96-1.77.54-.5,1.06-.58,1.59-.2.44.32.43.69-.06.94-.4.2-.87.29-1.25.53-.27.17-.45.49-.68.74.06.08.11.17.17.25.34-.05.71-.03,1.02-.16,1.16-.51,2.24-1.14,2.87-2.3.34-.64.8-.88,1.64-.6-.24.35-.42.69-.68.98-.26.29-.3.5-.05.82.31.41.56.86.89,1.39.68-.83,1.32-1.61,1.96-2.39.07.99-2.71,3.72-3.93,3.87.32-.41.55-.67.73-.96.18-.28.5-.7.4-.87-.23-.44-.64-.79-1.02-1.14-.04-.04-.29.14-.44.24-.87.56-1.72,1.16-2.63,1.66-.56.31-1.11.24-1.36-.49-.16-.45-.48-.42-.82-.21-.23.14-.44.32-.68.46-.58.33-.96.15-1.05-.51-.05-.36-.09-.72-.14-1.07-.01-.09-.06-.17-.11-.3-1.12.38-1.39,1.82-2.65,2.07-.03-.5-.05-.95-.09-1.52-.27.13-.49.21-.67.34-.47.32-.91.68-1.38.99-.78.52-1.44.19-1.54-.75-.04-.38.06-.96-.14-1.1-.28-.19-.78-.01-1.19-.04-.57-.03-.81.24-1.03.76-.23.57-.59,1.12-1.03,1.55-.49.49-1.02.23-1.15-.47-.05-.27-.09-.54-.14-.8-.08-.49-.34-.5-.65-.2-.27.27-.49.6-.75.88-.26.28-.52.58-.83.79-.43.3-.97.12-.99-.37-.04-.78.06-1.57.14-2.35.01-.13.15-.31.28-.37.18-.09.41-.09.62-.13.02.19.09.38.06.56-.04.22-.18.42-.23.64-.11.45-.18.91-.27,1.37.08.04.16.08.23.11Z" style="fill: #fff;"/>
  <path d="m21.02,50.65c1.9,0,3.69-.06,5.48.02,1,.05,1.8.63,2,1.67.22,1.19.38,2.43-.96,3.18-.08.04-.15.1-.3.19,1.13,1.03,1.06,2.35,1.14,3.64.02.29.12.58.1.87-.01.25-.14.5-.21.74-.26-.17-.69-.29-.74-.51-.19-.72-.25-1.47-.35-2.21-.04-.29-.03-.59-.11-.87-.17-.59-.51-1.01-1.19-1.03-1.11-.04-2.23-.08-3.34-.12-.38-.01-.44.18-.44.51.02,1.13.02,2.27.03,3.4,0,.37.06.76-.52.75-.53-.01-.63-.36-.63-.78.01-2.27.03-4.53.04-6.8,0-.86,0-1.72,0-2.65Zm1.05,4.59c1.41,0,2.7.1,3.98-.03,1-.1,1.59-.99,1.55-1.93-.05-.99-.63-1.59-1.77-1.68-1.11-.09-2.22-.08-3.33-.07-.14,0-.4.27-.4.42-.03,1.08-.02,2.16-.02,3.29Z" style="fill: #fff;"/>
  <path d="m72.87,55.77c.09-2.01.64-3.87,2.54-4.87,2.92-1.54,6.41-.09,7.08,3.55.31,1.68,0,3.25-.87,4.76-1.39,2.39-5.95,2.87-7.72.02-.66-1.06-1.08-2.19-1.03-3.47Zm.96-.03c.25.84.38,1.73.76,2.5.72,1.45,2.01,2.06,3.61,1.91,1.46-.14,2.39-1.02,2.91-2.34.43-1.1.45-2.26.26-3.41-.3-1.78-1.38-2.83-3.2-3.12-1.53-.25-2.89.4-3.58,1.87-.36.78-.49,1.67-.74,2.59Z" style="fill: #fff;"/>
  <path d="m69.61,54.56c0,1,.05,2,0,2.99-.17,3.08-2.1,3.93-4.62,3.59-2.4-.32-3.29-1.53-3.4-4.31-.07-1.85-.02-3.71-.01-5.57,0-.38.02-.72.57-.72.54,0,.57.3.57.7,0,1.72-.02,3.44,0,5.16,0,.63.07,1.27.18,1.89.18,1.03,1.1,1.82,2.14,1.86.56.02,1.17.09,1.69-.07.98-.3,1.63-1.01,1.67-2.09.07-2.06.09-4.12.13-6.18,0-.25-.06-.52.03-.74.08-.21.28-.49.46-.52.32-.06.62.1.61.53,0,1.15,0,2.31,0,3.47,0,0-.02,0-.02,0Z" style="fill: #fff;"/>
  <path d="m43.26,56c0,.62,0,1.2,0,1.78,0,.36,0,.73-.01,1.09-.06,1.11-.06,1.09,1.09,1.07,1.3-.02,2.6,0,3.89,0,.2,0,.44-.02.6.07.18.1.3.32.45.49-.17.13-.35.38-.52.38-1.46.03-2.91.02-4.37.01-.59,0-1.19.02-1.77-.03-.17-.01-.45-.26-.45-.39-.01-3.24,0-6.48.02-9.72,0-.02.02-.04.09-.18.61,0,1.28,0,1.95,0,1.25-.01,2.5-.03,3.75-.04.16,0,.35-.05.47.01.23.12.42.3.63.46-.21.16-.42.46-.64.46-1.27.05-2.55.03-3.82.03-.43,0-.85,0-1.32,0v3.6c1.36,0,2.71,0,4.07,0,.2,0,.43-.07.61,0,.2.08.35.27.52.41-.18.17-.34.46-.54.48-.65.06-1.32.03-1.98.03-.86,0-1.73,0-2.73,0Z" style="fill: #fff;"/>
  <path d="m33.03,56.41c0,1.26,0,2.48,0,3.7,0,.39.09.81-.51.81-.51,0-.65-.29-.65-.75.01-3.04.01-6.07.04-9.11,0-.16.21-.46.31-.46,1.68.02,3.37-.06,5.02.18,1.29.19,2.06,1.58,1.93,2.88-.13,1.35-1.09,2.42-2.41,2.56-1.06.11-2.13.09-3.2.14-.18,0-.35.03-.54.05Zm-.09-.92c1.36-.08,2.57-.06,3.74-.25,1.03-.16,1.44-.91,1.35-2.03-.08-.92-.65-1.54-1.62-1.61-1.02-.08-2.04-.09-3.06-.09-.14,0-.4.23-.4.36-.03,1.15-.02,2.3-.02,3.62Z" style="fill: #fff;"/>
  <path d="m11.03,50.58c.53,0,1.07,0,1.61,0,1.34-.02,2.68-.05,4.03-.07.11,0,.23-.02.34,0,.36.05.87-.11.87.49,0,.56-.47.51-.86.51-1.39,0-2.78-.01-4.16-.02-.22,0-.45,0-.82,0,0,1.13-.02,2.21.03,3.28,0,.12.4.31.61.31,1.32.03,2.64,0,3.96.04.26,0,.51.23.77.35-.26.18-.51.49-.77.5-1.3.05-2.59.03-3.89,0-.6-.02-.8.2-.76.79.05.81.06,1.63.02,2.45-.02.58.15.82.77.8,1.27-.05,2.55-.04,3.82-.05.27,0,.56-.06.81.01.25.08.64.26.67.44.06.46-.35.49-.71.49-.25,0-.5,0-.75,0-1.68,0-3.37,0-5.05,0-.43,0-.65-.07-.64-.6.03-3.15.02-6.3.02-9.44,0-.04.03-.09.09-.27Z" style="fill: #fff;"/>
  <path d="m1.74,56.37c0,1.13,0,2.19,0,3.25,0,.29.05.6-.03.88-.05.19-.29.44-.45.44-.17,0-.45-.25-.47-.42-.07-.58-.05-1.17-.05-1.76,0-2.54,0-5.07,0-7.61,0-.38.05-.61.5-.6,1.39.03,2.77,0,4.16.05,1.58.07,2.53,1.08,2.6,2.67.07,1.5-.95,2.79-2.43,2.96-.97.11-1.95.11-2.92.15-.27.01-.53,0-.9,0Zm.02-4.95c0,1.25-.02,2.34.02,3.42,0,.21.29.6.44.59,1.15-.02,2.32-.04,3.46-.21.8-.11,1.25-.94,1.22-1.88-.03-.87-.56-1.63-1.36-1.71-1.23-.13-2.48-.15-3.78-.21Z" style="fill: #fff;"/>
  <path d="m55.72,51.49c0,2.78,0,5.45,0,8.12,0,.25-.01.5-.02.75,0,.4-.22.55-.61.55-.45,0-.52-.24-.52-.61,0-2.15,0-4.3,0-6.45,0-.61-.05-1.22-.02-1.83.02-.44-.18-.55-.57-.53-.68.02-1.36.02-2.05.03-.35,0-.64-.04-.63-.5,0-.43.25-.51.63-.51,2.16.04,4.32.06,6.47.11.19,0,.53.22.54.35.02.34-.17.55-.6.53-.86-.04-1.72-.01-2.63-.01Z" style="fill: #fff;"/>
  <path d="m63.44,40.62c.29-2.4,1.41-4.5,2.51-6.6.09-.17.39-.23.59-.34.03.24.15.53.07.73-.49,1.09-1.1,2.13-1.54,3.24-.42,1.06-.66,2.19-1,3.29-.07.22-.24.41-.36.62-.1-.24-.2-.49-.28-.74-.02-.06.01-.13.02-.2Z" style="fill: #fff;"/>
  <path d="m38.36,64.28c-.02-.28-.07-.48-.02-.65.06-.21.21-.4.32-.6.13.11.36.2.38.33.03.21-.04.46-.15.64-.07.12-.29.16-.53.28Z" style="fill: #fff;"/>
</svg>
